<svg width="47" height="49" viewBox="0 0 47 49" fill="none" xmlns="http://www.w3.org/2000/svg">
<path d="M2.38462 36.7478C1.3539 34.9572 0.552669 33.0427 0 31.0501C1.20281 30.4355 2.21296 29.4986 2.91867 28.3431C3.62439 27.1876 3.99818 25.8584 3.99869 24.5027C3.99919 23.147 3.62639 21.8176 2.92154 20.6615C2.21668 19.5055 1.20723 18.5678 0.00487676 17.9523C1.10706 13.9485 3.20566 10.2924 6.10298 7.32855C7.23456 8.06764 8.54763 8.47779 9.89686 8.5136C11.2461 8.54941 12.5789 8.20949 13.7477 7.53145C14.9166 6.85342 15.8759 5.86371 16.5196 4.67185C17.1632 3.48 17.466 2.13247 17.3946 0.778413C21.3985 -0.261128 25.5999 -0.259442 29.603 0.783312C29.5322 2.13735 29.8356 3.48467 30.4797 4.67618C31.1239 5.8677 32.0836 6.85695 33.2526 7.53446C34.4217 8.21198 35.7546 8.55134 37.1037 8.515C38.4529 8.47866 39.7658 8.06803 40.897 7.32855C42.3088 8.77379 43.562 10.4175 44.6154 12.2522C45.6711 14.0869 46.4611 16 47 17.9499C45.7972 18.5645 44.787 19.5014 44.0813 20.6569C43.3756 21.8124 43.0018 23.1416 43.0013 24.4973C43.0008 25.853 43.3736 27.1824 44.0785 28.3385C44.7833 29.4945 45.7928 30.4322 46.9951 31.0477C45.8929 35.0515 43.7943 38.7076 40.897 41.6715C39.7654 40.9324 38.4524 40.5222 37.1031 40.4864C35.7539 40.4506 34.4211 40.7905 33.2523 41.4685C32.0834 42.1466 31.1241 43.1363 30.4804 44.3281C29.8368 45.52 29.534 46.8675 29.6054 48.2216C25.6015 49.2611 21.4001 49.2594 17.397 48.2167C17.4678 46.8627 17.1644 45.5153 16.5203 44.3238C15.8761 43.1323 14.9164 42.1431 13.7474 41.4655C12.5783 40.788 11.2454 40.4487 9.89625 40.485C8.54709 40.5213 7.23424 40.932 6.10298 41.6715C4.66194 40.1942 3.41258 38.5399 2.38462 36.7478ZM16.1852 37.2279C18.7835 38.7335 20.7371 41.1497 21.6713 44.0132C22.888 44.1284 24.1096 44.1308 25.3263 44.0157C26.2611 41.1518 28.2156 38.7355 30.8148 37.2304C33.4121 35.7207 36.4728 35.2278 39.4097 35.8464C40.1168 34.847 40.7263 33.7814 41.2335 32.6668C39.2327 30.4217 38.1274 27.5135 38.1296 24.5C38.1296 21.4135 39.2756 18.5304 41.2335 16.3332C40.7228 15.219 40.1106 14.1546 39.4048 13.1536C36.4698 13.7717 33.411 13.2797 30.8148 11.7721C28.2165 10.2665 26.2629 7.85027 25.3287 4.98677C24.112 4.87164 22.8904 4.86919 21.6737 4.98432C20.7389 7.84822 18.7844 10.2645 16.1852 11.7696C13.5879 13.2793 10.5272 13.7722 7.59032 13.1536C6.8846 14.1537 6.27398 15.2183 5.7665 16.3332C7.76727 18.5783 8.87256 21.4865 8.87041 24.5C8.87041 27.5865 7.72442 30.4696 5.7665 32.6668C6.27724 33.781 6.88941 34.8454 7.5952 35.8464C10.5302 35.2283 13.589 35.7203 16.1852 37.2279ZM23.5 31.8487C21.56 31.8487 19.6994 31.0745 18.3277 29.6963C16.9559 28.3182 16.1852 26.449 16.1852 24.5C16.1852 22.551 16.9559 20.6818 18.3277 19.3037C19.6994 17.9255 21.56 17.1513 23.5 17.1513C25.44 17.1513 27.3006 17.9255 28.6723 19.3037C30.0441 20.6818 30.8148 22.551 30.8148 24.5C30.8148 26.449 30.0441 28.3182 28.6723 29.6963C27.3006 31.0745 25.44 31.8487 23.5 31.8487ZM23.5 26.9496C24.1467 26.9496 24.7668 26.6915 25.2241 26.2321C25.6814 25.7727 25.9383 25.1497 25.9383 24.5C25.9383 23.8503 25.6814 23.2273 25.2241 22.7679C24.7668 22.3085 24.1467 22.0504 23.5 22.0504C22.8533 22.0504 22.2331 22.3085 21.7759 22.7679C21.3186 23.2273 21.0617 23.8503 21.0617 24.5C21.0617 25.1497 21.3186 25.7727 21.7759 26.2321C22.2331 26.6915 22.8533 26.9496 23.5 26.9496Z" fill="#09121F"/>
</svg>
