<svg width="49" height="49" viewBox="0 0 49 49" fill="none" xmlns="http://www.w3.org/2000/svg">
<path d="M24.5 49C10.9687 49 0 38.0313 0 24.5C0 10.9687 10.9687 0 24.5 0C38.0313 0 49 10.9687 49 24.5C49 38.0313 38.0313 49 24.5 49ZM24.5 44.1C29.6982 44.1 34.6836 42.035 38.3593 38.3593C42.035 34.6836 44.1 29.6982 44.1 24.5C44.1 19.3018 42.035 14.3164 38.3593 10.6407C34.6836 6.96499 29.6982 4.9 24.5 4.9C19.3018 4.9 14.3164 6.96499 10.6407 10.6407C6.96499 14.3164 4.9 19.3018 4.9 24.5C4.9 29.6982 6.96499 34.6836 10.6407 38.3593C14.3164 42.035 19.3018 44.1 24.5 44.1ZM26.95 22.05H34.3L22.05 39.2V26.95H14.7L26.95 9.8V22.05Z" fill="#09121F"/>
</svg>
