<svg width="42" height="56" viewBox="0 0 42 56" fill="none" xmlns="http://www.w3.org/2000/svg">
<path d="M15.6796 41.9973H26.3214C26.6679 38.8421 28.277 36.2381 30.8889 33.3952C31.1855 33.075 33.0729 31.1193 33.296 30.8411C35.15 28.5249 36.3121 25.7321 36.6484 22.7844C36.9848 19.8367 36.4817 16.8539 35.1972 14.1796C33.9126 11.5052 31.8988 9.24808 29.3877 7.66808C26.8765 6.08808 23.9702 5.24948 21.0034 5.24885C18.0365 5.24821 15.1298 6.08557 12.618 7.6645C10.1062 9.24342 8.09144 11.4997 6.80574 14.1735C5.52004 16.8473 5.0157 19.8298 5.35079 22.7777C5.68588 25.7256 6.84677 28.5188 8.69978 30.8358C8.92553 31.1167 10.8182 33.075 11.1095 33.3926C13.724 36.2381 15.3331 38.8421 15.6796 41.9973ZM26.2505 47.2473H15.7505V49.8723H26.2505V47.2473ZM4.60478 34.1223C2.13254 31.0335 0.583148 27.3091 0.135104 23.3781C-0.31294 19.4472 0.358586 15.4697 2.07233 11.9037C3.78606 8.33772 6.4723 5.32841 9.82159 3.2224C13.1709 1.11639 17.047 -0.00063326 21.0034 2.69334e-07C24.9598 0.000633799 28.8355 1.1189 32.1841 3.22598C35.5327 5.33306 38.218 8.34324 39.9306 11.9098C41.6432 15.4763 42.3134 19.454 41.8641 23.3848C41.4148 27.3156 39.8642 31.0395 37.391 34.1276C35.7635 36.1541 31.5005 39.3723 31.5005 43.3098V49.8723C31.5005 51.2647 30.9474 52.6001 29.9628 53.5846C28.9783 54.5692 27.6429 55.1223 26.2505 55.1223H15.7505C14.3581 55.1223 13.0228 54.5692 12.0382 53.5846C11.0537 52.6001 10.5005 51.2647 10.5005 49.8723V43.3098C10.5005 39.3723 6.23491 36.1541 4.60478 34.1223ZM23.6255 21.0079H30.188L18.3755 36.7578V26.2579H11.813L23.6255 10.4974V21.0105V21.0079Z" fill="#09121F"/>
</svg>
