<svg width="359" height="67" viewBox="0 0 359 67" fill="none" xmlns="http://www.w3.org/2000/svg">
<path d="M127.914 47.9028C125.188 44.8517 123.825 40.8649 123.825 35.9425C123.825 31.0201 125.188 27.0536 127.914 24.0432C130.68 20.9921 134.097 19.4666 138.165 19.4666C140.891 19.4666 143.352 20.2802 145.549 21.9074C146.485 22.6804 147.278 23.494 147.929 24.3483H148.234V20.3819H156.777V51.5031H148.234V47.5367H147.929C147.278 48.391 146.485 49.2046 145.549 49.9776C143.352 51.6048 140.891 52.4185 138.165 52.4185C134.097 52.4185 130.68 50.9132 127.914 47.9028ZM134.809 29.2301C133.385 30.8573 132.673 33.0948 132.673 35.9425C132.673 38.7902 133.385 41.0277 134.809 42.6549C136.233 44.2822 138.064 45.0958 140.301 45.0958C142.661 45.0958 144.573 44.3025 146.037 42.716C147.502 41.0887 148.234 38.8309 148.234 35.9425C148.234 33.0541 147.502 30.8167 146.037 29.2301C144.573 27.6028 142.661 26.7892 140.301 26.7892C138.064 26.7892 136.233 27.6028 134.809 29.2301ZM159.218 51.5031V20.3819H167.761V24.6534H168.066C168.595 23.7178 169.348 22.8635 170.324 22.0905C172.562 20.3412 175.063 19.4666 177.83 19.4666C181.694 19.4666 184.685 20.5853 186.8 22.8228C188.956 25.0602 190.034 28.3148 190.034 32.5863V51.5031H181.491V33.8067C181.491 31.5286 180.922 29.7996 179.782 28.6199C178.684 27.3994 177.118 26.7892 175.084 26.7892C173.05 26.7892 171.321 27.5622 169.897 29.108C168.473 30.6539 167.761 32.627 167.761 35.0272V51.5031H159.218ZM195.181 47.6587C191.968 44.4449 190.361 40.5395 190.361 35.9425C190.361 31.3455 191.968 27.4604 195.181 24.2873C198.436 21.0735 202.423 19.4666 207.142 19.4666C212.796 19.4666 217.109 21.5006 220.078 25.5688C221.421 27.3181 222.397 29.3521 223.007 31.671H214.159C213.793 30.776 213.305 29.9624 212.695 29.2301C211.149 27.6028 209.298 26.7892 207.142 26.7892C204.986 26.7892 203.114 27.6435 201.528 29.3521C199.982 31.0607 199.209 33.2575 199.209 35.9425C199.209 38.6275 199.982 40.8243 201.528 42.5329C203.114 44.2415 204.986 45.0958 207.142 45.0958C209.298 45.0958 211.149 44.2822 212.695 42.6549C213.305 41.9227 213.793 41.109 214.159 40.214H223.007C222.438 42.5736 221.502 44.6076 220.2 46.3162C217.231 50.3844 212.878 52.4185 207.142 52.4185C202.423 52.4185 198.436 50.8319 195.181 47.6587ZM226.605 47.6587C223.392 44.4449 221.785 40.5395 221.785 35.9425C221.785 31.3455 223.392 27.4604 226.605 24.2873C229.86 21.0735 233.847 19.4666 238.566 19.4666C243.366 19.4666 247.312 21.0531 250.404 24.2263C253.496 27.3994 255.042 31.3048 255.042 35.9425V37.7732H230.633C230.958 39.8072 231.874 41.5362 233.379 42.96C234.884 44.3839 236.613 45.0958 238.566 45.0958C240.722 45.0958 242.573 44.4856 244.119 43.2651C244.729 42.7363 245.217 42.1261 245.583 41.4345H254.737C254.045 43.5092 253.028 45.3399 251.685 46.9265C248.431 50.5878 244.058 52.4185 238.566 52.4185C233.847 52.4185 229.86 50.8319 226.605 47.6587ZM230.938 32.5863H245.888C245.563 30.959 244.729 29.5962 243.386 28.4978C242.085 27.3587 240.478 26.7892 238.566 26.7892C236.654 26.7892 235.026 27.3384 233.684 28.4368C232.341 29.5352 231.426 30.9184 230.938 32.5863ZM253.797 41.4345H262.646C262.93 42.1668 263.378 42.838 263.988 43.4482C265.29 44.75 267.08 45.4009 269.358 45.4009C272.816 45.4009 274.545 44.3839 274.545 42.3498C274.545 42.0244 274.463 41.7396 274.301 41.4955C274.138 41.2107 273.853 40.9667 273.446 40.7632C273.04 40.5192 272.653 40.3158 272.287 40.153C271.921 39.9903 271.372 39.8276 270.639 39.6649C269.948 39.4614 269.378 39.3191 268.931 39.2377C268.524 39.1563 267.853 39.0139 266.917 38.8105C266.022 38.6071 265.371 38.4648 264.964 38.3834C258.537 37.0002 255.323 33.8474 255.323 28.925C255.323 26.3214 256.482 24.1042 258.801 22.2736C261.161 20.4022 264.375 19.4666 268.443 19.4666C273.894 19.4666 277.982 21.1548 280.708 24.5314C281.888 25.9959 282.681 27.6639 283.088 29.5352H274.545C274.26 28.925 273.894 28.4165 273.446 28.0096C272.185 26.9926 270.517 26.4841 268.443 26.4841C266.978 26.4841 265.9 26.7282 265.208 27.2164C264.517 27.6639 264.171 28.2334 264.171 28.925C264.171 29.1691 264.212 29.4132 264.293 29.6572C264.415 29.8606 264.598 30.0641 264.842 30.2675C265.086 30.4302 265.331 30.5929 265.575 30.7556C265.819 30.8777 266.165 31.0201 266.612 31.1828C267.059 31.3048 267.446 31.4269 267.771 31.5489C268.138 31.671 268.605 31.793 269.175 31.9151C269.744 32.0371 270.233 32.1388 270.639 32.2202C271.046 32.3015 271.575 32.4236 272.226 32.5863C272.877 32.7083 273.406 32.81 273.813 32.8914C280.2 34.3153 283.393 37.4681 283.393 42.3498C283.393 45.0755 282.132 47.435 279.61 49.4284C277.087 51.4218 273.67 52.4185 269.358 52.4185C263.581 52.4185 259.31 50.5878 256.543 46.9265C255.282 45.2585 254.367 43.4279 253.797 41.4345ZM281.579 27.7045V20.3819H285.546V13.6695H294.089V20.3819H302.876V27.7045H294.089V44.1805H303.242V51.5031H285.546V27.7045H281.579ZM306.875 47.6587C303.62 44.4449 301.993 40.5395 301.993 35.9425C301.993 31.3455 303.62 27.4604 306.875 24.2873C310.129 21.0735 314.197 19.4666 319.079 19.4666C323.92 19.4666 327.968 21.0735 331.222 24.2873C334.518 27.4604 336.165 31.3455 336.165 35.9425C336.165 40.5395 334.518 44.4449 331.222 47.6587C327.968 50.8319 323.92 52.4185 319.079 52.4185C314.197 52.4185 310.129 50.8319 306.875 47.6587ZM313.221 29.3521C311.634 31.0607 310.841 33.2575 310.841 35.9425C310.841 38.6275 311.634 40.8243 313.221 42.5329C314.807 44.2415 316.76 45.0958 319.079 45.0958C321.398 45.0958 323.351 44.2415 324.937 42.5329C326.524 40.8243 327.317 38.6275 327.317 35.9425C327.317 33.2575 326.524 31.0607 324.937 29.3521C323.351 27.6435 321.398 26.7892 319.079 26.7892C316.76 26.7892 314.807 27.6435 313.221 29.3521ZM336.797 51.5031V20.3819H345.34V24.9585H345.645C346.011 23.9822 346.56 23.1279 347.293 22.3956C348.961 20.6463 351.056 19.7717 353.578 19.7717H357.239V28.0096H352.663C350.344 28.0096 348.533 28.6402 347.232 29.9013C345.97 31.1218 345.34 32.8304 345.34 35.0272V51.5031H336.797Z" fill="black"/>
<path d="M5.55258 63.9319L39.5299 5.2438L73.5072 63.9319H5.55258Z" stroke="black" stroke-width="5.25467"/>
<path d="M24.8194 63.9319L58.7967 5.2438L92.774 63.9319H24.8194Z" stroke="black" stroke-width="5.25467"/>
</svg>
