<svg width="150" height="48" viewBox="0 0 150 48" fill="none" xmlns="http://www.w3.org/2000/svg">
<path d="M115.712 16.9913L101.48 2.51766C101.201 2.23317 100.742 2.23317 100.462 2.51766L86.7399 16.4736C86.4602 16.7581 86.0016 16.7581 85.7218 16.4736L71.9995 2.51766C71.7198 2.23317 71.2612 2.23317 70.9814 2.51766L57.2591 16.4736C56.9794 16.7581 56.5208 16.7581 56.2411 16.4736L42.5187 2.51766C42.239 2.23317 41.7804 2.23317 41.5007 2.51766L27.7783 16.4736C27.4986 16.7581 27.04 16.7581 26.7603 16.4736L13.0379 2.51766C12.7582 2.23317 12.2996 2.23317 12.0199 2.51766L2.00003 12.708" stroke="black" stroke-opacity="0.15" stroke-width="2.85549"/>
<path d="M148.001 46.26L133.769 31.7864C133.49 31.5019 133.031 31.5019 132.751 31.7864L119.029 45.7424C118.749 46.0268 118.291 46.0268 118.011 45.7424L104.288 31.7864C104.009 31.5019 103.55 31.5019 103.27 31.7864L89.548 45.7424C89.2683 46.0268 88.8097 46.0268 88.53 45.7424L74.8076 31.7864C74.5279 31.5019 74.0693 31.5019 73.7896 31.7864L60.0672 45.7424C59.7875 46.0268 59.3289 46.0268 59.0492 45.7424L45.3268 31.7864C45.0471 31.5019 44.5885 31.5019 44.3088 31.7864L34.289 41.9768" stroke="black" stroke-opacity="0.15" stroke-width="2.85549"/>
</svg>
