<svg width="42" height="56" viewBox="0 0 42 56" fill="none" xmlns="http://www.w3.org/2000/svg">
<path d="M35.3684 16.5367H39.7895C40.3757 16.5367 40.938 16.8271 41.3526 17.3439C41.7671 17.8608 42 18.5618 42 19.2928V52.3662C42 53.0972 41.7671 53.7982 41.3526 54.3151C40.938 54.832 40.3757 55.1223 39.7895 55.1223H22.1053C21.519 55.1223 20.9567 54.832 20.5422 54.3151C20.1276 53.7982 19.8947 53.0972 19.8947 52.3662V49.6101H2.21053C1.62426 49.6101 1.062 49.3197 0.647448 48.8029C0.232894 48.286 0 47.585 0 46.854V2.75612C0 2.02515 0.232894 1.32412 0.647448 0.807248C1.062 0.290376 1.62426 0 2.21053 0H33.1579C33.7442 0 34.3064 0.290376 34.721 0.807248C35.1355 1.32412 35.3684 2.02515 35.3684 2.75612V16.5367ZM30.9474 16.5367V5.51223H4.42105V44.0979H19.8947V19.2928C19.8947 18.5618 20.1276 17.8608 20.5422 17.3439C20.9567 16.8271 21.519 16.5367 22.1053 16.5367H30.9474ZM24.3158 22.0489V49.6101H37.5789V22.0489H24.3158Z" fill="#09121F"/>
</svg>
