<svg width="901" height="314" viewBox="0 0 901 314" fill="none" xmlns="http://www.w3.org/2000/svg">
<g clip-path="url(#clip0)">
<rect width="901" height="314" rx="8" fill="#FBFBFB"/>
<path d="M399.914 134.903C397.188 131.852 395.825 127.865 395.825 122.943C395.825 118.02 397.188 114.054 399.914 111.043C402.68 107.992 406.097 106.467 410.165 106.467C412.891 106.467 415.352 107.28 417.549 108.907C418.485 109.68 419.278 110.494 419.929 111.348H420.234V107.382H428.777V138.503H420.234V134.537H419.929C419.278 135.391 418.485 136.205 417.549 136.978C415.352 138.605 412.891 139.419 410.165 139.419C406.097 139.419 402.68 137.913 399.914 134.903ZM406.809 116.23C405.385 117.857 404.673 120.095 404.673 122.943C404.673 125.79 405.385 128.028 406.809 129.655C408.233 131.282 410.064 132.096 412.301 132.096C414.661 132.096 416.573 131.303 418.037 129.716C419.502 128.089 420.234 125.831 420.234 122.943C420.234 120.054 419.502 117.817 418.037 116.23C416.573 114.603 414.661 113.789 412.301 113.789C410.064 113.789 408.233 114.603 406.809 116.23ZM431.218 138.503V107.382H439.761V111.653H440.066C440.595 110.718 441.348 109.864 442.324 109.091C444.561 107.341 447.063 106.467 449.83 106.467C453.694 106.467 456.684 107.585 458.8 109.823C460.956 112.06 462.034 115.315 462.034 119.586V138.503H453.491V120.807C453.491 118.529 452.921 116.8 451.782 115.62C450.684 114.399 449.118 113.789 447.084 113.789C445.05 113.789 443.321 114.562 441.897 116.108C440.473 117.654 439.761 119.627 439.761 122.027V138.503H431.218ZM467.181 134.659C463.968 131.445 462.361 127.54 462.361 122.943C462.361 118.346 463.968 114.461 467.181 111.287C470.436 108.074 474.423 106.467 479.142 106.467C484.796 106.467 489.109 108.501 492.078 112.569C493.421 114.318 494.397 116.352 495.007 118.671H486.159C485.793 117.776 485.305 116.962 484.695 116.23C483.149 114.603 481.298 113.789 479.142 113.789C476.986 113.789 475.114 114.644 473.528 116.352C471.982 118.061 471.209 120.258 471.209 122.943C471.209 125.628 471.982 127.824 473.528 129.533C475.114 131.242 476.986 132.096 479.142 132.096C481.298 132.096 483.149 131.282 484.695 129.655C485.305 128.923 485.793 128.109 486.159 127.214H495.007C494.438 129.574 493.502 131.608 492.2 133.316C489.231 137.384 484.878 139.419 479.142 139.419C474.423 139.419 470.436 137.832 467.181 134.659ZM498.605 134.659C495.391 131.445 493.785 127.54 493.785 122.943C493.785 118.346 495.391 114.461 498.605 111.287C501.86 108.074 505.847 106.467 510.566 106.467C515.366 106.467 519.312 108.053 522.404 111.226C525.496 114.399 527.042 118.305 527.042 122.943V124.773H502.633C502.958 126.807 503.874 128.536 505.379 129.96C506.884 131.384 508.613 132.096 510.566 132.096C512.722 132.096 514.573 131.486 516.119 130.265C516.729 129.736 517.217 129.126 517.583 128.435H526.736C526.045 130.509 525.028 132.34 523.685 133.927C520.431 137.588 516.058 139.419 510.566 139.419C505.847 139.419 501.86 137.832 498.605 134.659ZM502.938 119.586H517.888C517.563 117.959 516.729 116.596 515.386 115.498C514.085 114.359 512.478 113.789 510.566 113.789C508.654 113.789 507.026 114.338 505.684 115.437C504.341 116.535 503.426 117.918 502.938 119.586ZM525.797 128.435H534.645C534.93 129.167 535.378 129.838 535.988 130.448C537.29 131.75 539.08 132.401 541.358 132.401C544.816 132.401 546.545 131.384 546.545 129.35C546.545 129.024 546.463 128.74 546.301 128.496C546.138 128.211 545.853 127.967 545.446 127.763C545.04 127.519 544.653 127.316 544.287 127.153C543.921 126.99 543.372 126.828 542.639 126.665C541.948 126.461 541.378 126.319 540.931 126.238C540.524 126.156 539.853 126.014 538.917 125.811C538.022 125.607 537.371 125.465 536.964 125.383C530.537 124 527.323 120.847 527.323 115.925C527.323 113.321 528.482 111.104 530.801 109.274C533.161 107.402 536.374 106.467 540.443 106.467C545.894 106.467 549.982 108.155 552.708 111.531C553.888 112.996 554.681 114.664 555.088 116.535H546.545C546.26 115.925 545.894 115.417 545.446 115.01C544.185 113.993 542.517 113.484 540.443 113.484C538.978 113.484 537.9 113.728 537.208 114.216C536.517 114.664 536.171 115.233 536.171 115.925C536.171 116.169 536.212 116.413 536.293 116.657C536.415 116.861 536.598 117.064 536.842 117.268C537.086 117.43 537.33 117.593 537.575 117.756C537.819 117.878 538.164 118.02 538.612 118.183C539.059 118.305 539.446 118.427 539.771 118.549C540.137 118.671 540.605 118.793 541.175 118.915C541.744 119.037 542.233 119.139 542.639 119.22C543.046 119.302 543.575 119.424 544.226 119.586C544.877 119.708 545.406 119.81 545.812 119.891C552.199 121.315 555.393 124.468 555.393 129.35C555.393 132.076 554.132 134.435 551.61 136.428C549.087 138.422 545.67 139.419 541.358 139.419C535.581 139.419 531.31 137.588 528.543 133.927C527.282 132.259 526.367 130.428 525.797 128.435ZM553.579 114.705V107.382H557.545V100.67H566.088V107.382H574.876V114.705H566.088V131.181H575.242V138.503H557.545V114.705H553.579ZM578.874 134.659C575.62 131.445 573.993 127.54 573.993 122.943C573.993 118.346 575.62 114.461 578.874 111.287C582.129 108.074 586.197 106.467 591.079 106.467C595.92 106.467 599.968 108.074 603.222 111.287C606.517 114.461 608.165 118.346 608.165 122.943C608.165 127.54 606.517 131.445 603.222 134.659C599.968 137.832 595.92 139.419 591.079 139.419C586.197 139.419 582.129 137.832 578.874 134.659ZM585.221 116.352C583.634 118.061 582.841 120.258 582.841 122.943C582.841 125.628 583.634 127.824 585.221 129.533C586.807 131.242 588.76 132.096 591.079 132.096C593.398 132.096 595.35 131.242 596.937 129.533C598.524 127.824 599.317 125.628 599.317 122.943C599.317 120.258 598.524 118.061 596.937 116.352C595.35 114.644 593.398 113.789 591.079 113.789C588.76 113.789 586.807 114.644 585.221 116.352ZM608.797 138.503V107.382H617.34V111.959H617.645C618.011 110.982 618.56 110.128 619.292 109.396C620.96 107.646 623.056 106.772 625.578 106.772H629.239V115.01H624.662C622.344 115.01 620.533 115.64 619.231 116.901C617.97 118.122 617.34 119.83 617.34 122.027V138.503H608.797Z" fill="black"/>
<path d="M277.552 150.932L311.53 92.2438L345.507 150.932H277.552Z" stroke="black" stroke-width="5.25467"/>
<path d="M296.819 150.932L330.796 92.2438L364.774 150.932H296.819Z" stroke="black" stroke-width="5.25467"/>
<path d="M176.498 204.066V188.277H180.72V204.066C180.72 206.172 181.271 207.8 182.373 208.95C183.474 210.101 185.004 210.676 186.963 210.676C188.921 210.676 190.451 210.101 191.553 208.95C192.654 207.8 193.205 206.172 193.205 204.066V188.277H197.428V204.066C197.428 207.371 196.486 209.978 194.601 211.888C192.74 213.773 190.194 214.715 186.963 214.715C183.731 214.715 181.173 213.773 179.288 211.888C177.428 209.978 176.498 207.371 176.498 204.066ZM200.557 213.981V188.277H204.779V213.981H200.557ZM216.168 220.958V195.254H220.024V197.64H220.208C220.648 197.126 221.15 196.673 221.713 196.282C223.035 195.351 224.492 194.886 226.083 194.886C228.604 194.886 230.698 195.792 232.362 197.604C234.051 199.391 234.896 201.729 234.896 204.617C234.896 207.506 234.051 209.856 232.362 211.668C230.698 213.455 228.604 214.348 226.083 214.348C224.467 214.348 223.011 213.895 221.713 212.99C221.126 212.573 220.624 212.108 220.208 211.594H220.024V220.958H216.168ZM221.456 200.027C220.501 201.104 220.024 202.634 220.024 204.617C220.024 206.6 220.501 208.142 221.456 209.244C222.435 210.321 223.733 210.86 225.349 210.86C227.062 210.86 228.409 210.321 229.388 209.244C230.367 208.167 230.857 206.625 230.857 204.617C230.857 202.61 230.367 201.068 229.388 199.99C228.409 198.913 227.062 198.375 225.349 198.375C223.733 198.375 222.435 198.926 221.456 200.027ZM236.35 213.981V195.254H240.206V198.008H240.39C240.659 197.493 241.051 197.004 241.565 196.539C242.691 195.56 244.013 195.07 245.53 195.07H247.734V198.742H245.347C243.854 198.742 242.617 199.219 241.638 200.174C240.683 201.104 240.206 202.341 240.206 203.883V213.981H236.35ZM249.116 191.839C248.675 191.398 248.455 190.859 248.455 190.223C248.455 189.586 248.675 189.048 249.116 188.607C249.557 188.142 250.095 187.909 250.732 187.909C251.368 187.909 251.907 188.142 252.348 188.607C252.813 189.048 253.045 189.586 253.045 190.223C253.045 190.859 252.813 191.398 252.348 191.839C251.907 192.279 251.368 192.5 250.732 192.5C250.095 192.5 249.557 192.279 249.116 191.839ZM248.822 213.981V195.254H252.678V213.981H248.822ZM255.234 213.981V195.254H259.09V197.824H259.273C259.592 197.285 260.008 196.796 260.522 196.355C261.697 195.376 263.117 194.886 264.781 194.886C266.764 194.886 268.368 195.474 269.592 196.649C270.106 197.139 270.522 197.714 270.84 198.375H271.024C271.367 197.738 271.844 197.163 272.456 196.649C273.778 195.474 275.443 194.886 277.45 194.886C279.629 194.886 281.33 195.572 282.554 196.943C283.803 198.289 284.427 200.235 284.427 202.781V213.981H280.571V202.965C280.571 199.905 279.225 198.375 276.532 198.375C275.234 198.375 274.108 198.889 273.154 199.917C272.223 200.921 271.758 202.181 271.758 203.699V213.981H267.903V202.965C267.903 199.905 266.556 198.375 263.863 198.375C262.566 198.375 261.44 198.889 260.485 199.917C259.555 200.921 259.09 202.181 259.09 203.699V213.981H255.234ZM287.113 191.839C286.672 191.398 286.452 190.859 286.452 190.223C286.452 189.586 286.672 189.048 287.113 188.607C287.554 188.142 288.092 187.909 288.729 187.909C289.365 187.909 289.904 188.142 290.345 188.607C290.81 189.048 291.042 189.586 291.042 190.223C291.042 190.859 290.81 191.398 290.345 191.839C289.904 192.279 289.365 192.5 288.729 192.5C288.092 192.5 287.554 192.279 287.113 191.839ZM286.819 213.981V195.254H290.675V213.981H286.819ZM291.762 198.742V195.254H293.966V191.214H297.821V195.254H303.513V198.742H297.821V210.493H303.696V213.981H293.966V198.742H291.762ZM305.459 191.839C305.018 191.398 304.798 190.859 304.798 190.223C304.798 189.586 305.018 189.048 305.459 188.607C305.9 188.142 306.438 187.909 307.075 187.909C307.711 187.909 308.25 188.142 308.69 188.607C309.156 189.048 309.388 189.586 309.388 190.223C309.388 190.859 309.156 191.398 308.69 191.839C308.25 192.279 307.711 192.5 307.075 192.5C306.438 192.5 305.9 192.279 305.459 191.839ZM305.165 213.981V195.254H309.021V213.981H305.165ZM309.741 195.254H313.78L317.819 210.493H320.206L324.246 195.254H328.285L323.144 213.981H314.882L309.741 195.254ZM330.686 211.557C328.85 209.672 327.932 207.359 327.932 204.617C327.932 201.875 328.85 199.574 330.686 197.714C332.546 195.829 334.811 194.886 337.479 194.886C340.148 194.886 342.4 195.829 344.236 197.714C346.096 199.574 347.026 201.875 347.026 204.617V205.902H331.788C332.081 207.445 332.755 208.656 333.807 209.538C334.86 210.419 336.084 210.86 337.479 210.86C339.193 210.86 340.564 210.431 341.592 209.575C342.057 209.232 342.461 208.803 342.804 208.289H346.843C346.329 209.489 345.68 210.505 344.897 211.337C342.889 213.344 340.417 214.348 337.479 214.348C334.811 214.348 332.546 213.418 330.686 211.557ZM331.971 202.781H342.987C342.767 201.557 342.179 200.517 341.225 199.66C340.294 198.803 339.046 198.375 337.479 198.375C336.157 198.375 334.982 198.779 333.954 199.587C332.926 200.37 332.265 201.435 331.971 202.781ZM347.213 208.106H351.436C351.607 208.595 351.913 209.06 352.354 209.501C353.26 210.407 354.484 210.86 356.026 210.86C357.372 210.86 358.352 210.652 358.964 210.235C359.576 209.819 359.882 209.293 359.882 208.656C359.882 208.436 359.833 208.24 359.735 208.069C359.637 207.873 359.465 207.702 359.221 207.555C358.976 207.408 358.743 207.286 358.523 207.188C358.303 207.065 357.972 206.955 357.531 206.857C357.091 206.735 356.736 206.649 356.467 206.6C356.197 206.527 355.781 206.429 355.218 206.306C354.679 206.184 354.276 206.098 354.006 206.049C350.089 205.168 348.131 203.283 348.131 200.394C348.131 198.926 348.804 197.64 350.151 196.539C351.497 195.437 353.272 194.886 355.475 194.886C358.535 194.886 360.824 195.866 362.342 197.824C363.027 198.681 363.492 199.66 363.737 200.762H359.698C359.502 200.272 359.233 199.88 358.89 199.587C358.033 198.779 356.895 198.375 355.475 198.375C354.373 198.375 353.541 198.571 352.978 198.962C352.44 199.354 352.17 199.844 352.17 200.431C352.17 200.651 352.219 200.86 352.317 201.055C352.415 201.227 352.586 201.386 352.831 201.533C353.076 201.68 353.309 201.802 353.529 201.9C353.774 201.998 354.104 202.108 354.52 202.23C354.937 202.328 355.291 202.414 355.585 202.487C355.879 202.536 356.283 202.622 356.797 202.745C357.336 202.842 357.752 202.928 358.045 203.002C361.962 203.883 363.921 205.768 363.921 208.656C363.921 210.223 363.211 211.57 361.791 212.696C360.396 213.797 358.474 214.348 356.026 214.348C352.843 214.348 350.408 213.308 348.719 211.227C347.96 210.272 347.458 209.232 347.213 208.106ZM372.368 198.742V195.254H374.571V188.277H383.935V191.765H378.427V195.254H382.833V198.742H378.427V213.981H374.571V198.742H372.368ZM385.631 211.557C383.771 209.672 382.84 207.359 382.84 204.617C382.84 201.875 383.771 199.574 385.631 197.714C387.516 195.829 389.829 194.886 392.571 194.886C395.313 194.886 397.614 195.829 399.475 197.714C401.36 199.574 402.302 201.875 402.302 204.617C402.302 207.359 401.36 209.672 399.475 211.557C397.614 213.418 395.313 214.348 392.571 214.348C389.829 214.348 387.516 213.418 385.631 211.557ZM388.459 200.101C387.406 201.227 386.88 202.732 386.88 204.617C386.88 206.502 387.406 208.02 388.459 209.171C389.511 210.297 390.882 210.86 392.571 210.86C394.26 210.86 395.631 210.297 396.684 209.171C397.737 208.02 398.263 206.502 398.263 204.617C398.263 202.732 397.737 201.227 396.684 200.101C395.631 198.95 394.26 198.375 392.571 198.375C390.882 198.375 389.511 198.95 388.459 200.101ZM403.765 213.981V195.254H407.621V198.008H407.805C408.074 197.493 408.465 197.004 408.98 196.539C410.106 195.56 411.428 195.07 412.945 195.07H415.149V198.742H412.762C411.268 198.742 410.032 199.219 409.053 200.174C408.098 201.104 407.621 202.341 407.621 203.883V213.981H403.765ZM425.06 213.981V188.277H436.26C439.296 188.277 441.707 189.06 443.494 190.627C445.281 192.194 446.174 194.164 446.174 196.539C446.174 198.424 445.587 200.088 444.412 201.533C443.261 202.953 441.646 203.92 439.565 204.434L445.991 213.981H441.034L434.975 204.801H429.283V213.981H425.06ZM429.283 200.762H436.26C439.932 200.762 441.768 199.354 441.768 196.539C441.768 193.724 439.932 192.316 436.26 192.316H429.283V200.762ZM449.145 211.557C447.309 209.672 446.391 207.359 446.391 204.617C446.391 201.875 447.309 199.574 449.145 197.714C451.006 195.829 453.27 194.886 455.938 194.886C458.607 194.886 460.859 195.829 462.695 197.714C464.555 199.574 465.486 201.875 465.486 204.617V205.902H450.247C450.54 207.445 451.214 208.656 452.266 209.538C453.319 210.419 454.543 210.86 455.938 210.86C457.652 210.86 459.023 210.431 460.051 209.575C460.516 209.232 460.92 208.803 461.263 208.289H465.302C464.788 209.489 464.139 210.505 463.356 211.337C461.349 213.344 458.876 214.348 455.938 214.348C453.27 214.348 451.006 213.418 449.145 211.557ZM450.43 202.781H461.446C461.226 201.557 460.639 200.517 459.684 199.66C458.754 198.803 457.505 198.375 455.938 198.375C454.616 198.375 453.441 198.779 452.413 199.587C451.385 200.37 450.724 201.435 450.43 202.781ZM466.039 206.27H470.446C470.617 207.126 470.972 207.898 471.511 208.583C472.686 210.101 474.473 210.86 476.872 210.86C478.806 210.86 480.238 210.517 481.168 209.832C482.098 209.122 482.564 208.179 482.564 207.004C482.564 206.074 482.135 205.327 481.278 204.764C480.446 204.201 479.246 203.711 477.68 203.295C474.62 202.512 472.563 201.863 471.511 201.349C468.598 200.003 467.141 197.971 467.141 195.254C467.141 193.173 468.022 191.373 469.785 189.856C471.547 188.313 473.849 187.542 476.688 187.542C480.458 187.542 483.261 188.803 485.097 191.324C485.881 192.402 486.444 193.65 486.786 195.07H482.38C482.209 194.384 481.903 193.772 481.462 193.234C480.434 192.01 478.843 191.398 476.688 191.398C475.024 191.398 473.751 191.741 472.869 192.426C471.988 193.112 471.547 193.993 471.547 195.07C471.547 196.686 473.175 197.934 476.431 198.815C476.7 198.889 477.215 199.036 477.973 199.256C478.732 199.452 479.271 199.611 479.589 199.733C479.932 199.831 480.446 200.003 481.131 200.248C481.841 200.468 482.368 200.676 482.71 200.872C483.053 201.068 483.494 201.325 484.032 201.643C484.571 201.937 484.975 202.255 485.244 202.598C485.538 202.916 485.832 203.283 486.125 203.699C486.444 204.115 486.664 204.593 486.786 205.131C486.909 205.645 486.97 206.208 486.97 206.82C486.97 209.024 486.052 210.896 484.216 212.439C482.404 213.956 479.956 214.715 476.872 214.715C472.759 214.715 469.736 213.308 467.802 210.493C466.921 209.293 466.333 207.885 466.039 206.27ZM490.368 211.594C488.581 209.758 487.687 207.432 487.687 204.617C487.687 201.802 488.581 199.476 490.368 197.64C492.155 195.804 494.383 194.886 497.051 194.886C500.037 194.886 502.473 196.025 504.358 198.301C505.166 199.354 505.729 200.48 506.047 201.68H502.008C501.837 201.068 501.519 200.517 501.053 200.027C500.099 198.926 498.765 198.375 497.051 198.375C495.533 198.375 494.26 198.95 493.232 200.101C492.228 201.251 491.726 202.757 491.726 204.617C491.726 206.478 492.228 207.983 493.232 209.134C494.26 210.284 495.533 210.86 497.051 210.86C498.813 210.86 500.197 210.309 501.2 209.207C501.641 208.718 501.971 208.167 502.192 207.555H506.047C505.729 208.803 505.166 209.942 504.358 210.97C502.498 213.222 500.062 214.348 497.051 214.348C494.383 214.348 492.155 213.43 490.368 211.594ZM507.321 213.981V195.254H511.177V198.008H511.36C511.63 197.493 512.021 197.004 512.535 196.539C513.662 195.56 514.983 195.07 516.501 195.07H518.704V198.742H516.318C514.824 198.742 513.588 199.219 512.609 200.174C511.654 201.104 511.177 202.341 511.177 203.883V213.981H507.321ZM520.087 191.839C519.646 191.398 519.426 190.859 519.426 190.223C519.426 189.586 519.646 189.048 520.087 188.607C520.528 188.142 521.066 187.909 521.703 187.909C522.339 187.909 522.878 188.142 523.318 188.607C523.783 189.048 524.016 189.586 524.016 190.223C524.016 190.859 523.783 191.398 523.318 191.839C522.878 192.279 522.339 192.5 521.703 192.5C521.066 192.5 520.528 192.279 520.087 191.839ZM519.793 213.981V195.254H523.649V213.981H519.793ZM526.205 220.958V195.254H530.061V197.64H530.244C530.685 197.126 531.187 196.673 531.75 196.282C533.072 195.351 534.528 194.886 536.119 194.886C538.641 194.886 540.734 195.792 542.399 197.604C544.088 199.391 544.932 201.729 544.932 204.617C544.932 207.506 544.088 209.856 542.399 211.668C540.734 213.455 538.641 214.348 536.119 214.348C534.504 214.348 533.047 213.895 531.75 212.99C531.162 212.573 530.66 212.108 530.244 211.594H530.061V220.958H526.205ZM531.493 200.027C530.538 201.104 530.061 202.634 530.061 204.617C530.061 206.6 530.538 208.142 531.493 209.244C532.472 210.321 533.769 210.86 535.385 210.86C537.099 210.86 538.445 210.321 539.424 209.244C540.403 208.167 540.893 206.625 540.893 204.617C540.893 202.61 540.403 201.068 539.424 199.99C538.445 198.913 537.099 198.375 535.385 198.375C533.769 198.375 532.472 198.926 531.493 200.027ZM544.918 198.742V195.254H547.121V191.214H550.977V195.254H556.668V198.742H550.977V210.493H556.852V213.981H547.121V198.742H544.918ZM568.172 211.668C566.507 209.856 565.675 207.506 565.675 204.617C565.675 201.729 566.507 199.391 568.172 197.604C569.861 195.792 571.966 194.886 574.488 194.886C576.079 194.886 577.536 195.351 578.858 196.282C579.421 196.673 579.923 197.126 580.363 197.64H580.547V195.254H584.402V213.981H580.547V211.411H580.363C579.996 211.925 579.494 212.414 578.858 212.879C577.536 213.859 576.079 214.348 574.488 214.348C571.966 214.348 569.861 213.455 568.172 211.668ZM571.183 199.99C570.204 201.068 569.714 202.61 569.714 204.617C569.714 206.625 570.204 208.167 571.183 209.244C572.162 210.321 573.509 210.86 575.222 210.86C576.838 210.86 578.123 210.321 579.078 209.244C580.057 208.142 580.547 206.6 580.547 204.617C580.547 202.634 580.057 201.104 579.078 200.027C578.123 198.926 576.838 198.375 575.222 198.375C573.509 198.375 572.162 198.913 571.183 199.99ZM586.959 213.981V195.254H590.814V197.824H590.998C591.292 197.334 591.744 196.845 592.356 196.355C593.678 195.376 595.184 194.886 596.873 194.886C599.199 194.886 600.998 195.56 602.271 196.906C603.568 198.252 604.217 200.211 604.217 202.781V213.981H600.361V203.148C600.361 201.508 599.994 200.309 599.26 199.55C598.55 198.766 597.448 198.375 595.955 198.375C594.462 198.375 593.225 198.889 592.246 199.917C591.292 200.921 590.814 202.243 590.814 203.883V213.981H586.959ZM607.998 211.668C606.333 209.856 605.501 207.506 605.501 204.617C605.501 201.729 606.333 199.391 607.998 197.604C609.687 195.792 611.792 194.886 614.314 194.886C615.905 194.886 617.362 195.351 618.684 196.282C619.247 196.673 619.748 197.126 620.189 197.64H620.373V188.277H624.228V213.981H620.373V211.594H620.189C619.773 212.108 619.271 212.573 618.684 212.99C617.386 213.895 615.929 214.348 614.314 214.348C611.792 214.348 609.687 213.455 607.998 211.668ZM611.009 199.99C610.03 201.068 609.54 202.61 609.54 204.617C609.54 206.625 610.03 208.167 611.009 209.244C611.988 210.321 613.335 210.86 615.048 210.86C616.664 210.86 617.949 210.321 618.904 209.244C619.883 208.142 620.373 206.6 620.373 204.617C620.373 202.634 619.883 201.104 618.904 200.027C617.949 198.926 616.664 198.375 615.048 198.375C613.335 198.375 611.988 198.913 611.009 199.99ZM635.607 213.981V188.277H646.807C649.843 188.277 652.254 189.06 654.041 190.627C655.828 192.194 656.722 194.164 656.722 196.539C656.722 198.424 656.134 200.088 654.959 201.533C653.808 202.953 652.193 203.92 650.112 204.434L656.538 213.981H651.581L645.522 204.801H639.83V213.981H635.607ZM639.83 200.762H646.807C650.479 200.762 652.315 199.354 652.315 196.539C652.315 193.724 650.479 192.316 646.807 192.316H639.83V200.762ZM659.692 211.557C657.856 209.672 656.938 207.359 656.938 204.617C656.938 201.875 657.856 199.574 659.692 197.714C661.553 195.829 663.817 194.886 666.485 194.886C669.154 194.886 671.406 195.829 673.242 197.714C675.103 199.574 676.033 201.875 676.033 204.617V205.902H660.794C661.088 207.445 661.761 208.656 662.813 209.538C663.866 210.419 665.09 210.86 666.485 210.86C668.199 210.86 669.57 210.431 670.598 209.575C671.063 209.232 671.467 208.803 671.81 208.289H675.849C675.335 209.489 674.686 210.505 673.903 211.337C671.896 213.344 669.423 214.348 666.485 214.348C663.817 214.348 661.553 213.418 659.692 211.557ZM660.977 202.781H671.994C671.773 201.557 671.186 200.517 670.231 199.66C669.301 198.803 668.052 198.375 666.485 198.375C665.164 198.375 663.988 198.779 662.96 199.587C661.932 200.37 661.271 201.435 660.977 202.781ZM678.9 211.668C677.235 209.856 676.403 207.506 676.403 204.617C676.403 201.729 677.235 199.391 678.9 197.604C680.589 195.792 682.694 194.886 685.216 194.886C686.807 194.886 688.263 195.351 689.585 196.282C690.148 196.673 690.65 197.126 691.091 197.64H691.275V195.254H695.13V213.981H691.275V211.411H691.091C690.724 211.925 690.222 212.414 689.585 212.879C688.263 213.859 686.807 214.348 685.216 214.348C682.694 214.348 680.589 213.455 678.9 211.668ZM681.911 199.99C680.932 201.068 680.442 202.61 680.442 204.617C680.442 206.625 680.932 208.167 681.911 209.244C682.89 210.321 684.236 210.86 685.95 210.86C687.566 210.86 688.851 210.321 689.806 209.244C690.785 208.142 691.275 206.6 691.275 204.617C691.275 202.634 690.785 201.104 689.806 200.027C688.851 198.926 687.566 198.375 685.95 198.375C684.236 198.375 682.89 198.913 681.911 199.99ZM699.265 211.594C697.478 209.758 696.585 207.432 696.585 204.617C696.585 201.802 697.478 199.476 699.265 197.64C701.052 195.804 703.28 194.886 705.948 194.886C708.935 194.886 711.371 196.025 713.256 198.301C714.064 199.354 714.627 200.48 714.945 201.68H710.906C710.734 201.068 710.416 200.517 709.951 200.027C708.996 198.926 707.662 198.375 705.948 198.375C704.431 198.375 703.158 198.95 702.129 200.101C701.126 201.251 700.624 202.757 700.624 204.617C700.624 206.478 701.126 207.983 702.129 209.134C703.158 210.284 704.431 210.86 705.948 210.86C707.711 210.86 709.094 210.309 710.098 209.207C710.538 208.718 710.869 208.167 711.089 207.555H714.945C714.627 208.803 714.064 209.942 713.256 210.97C711.395 213.222 708.959 214.348 705.948 214.348C703.28 214.348 701.052 213.43 699.265 211.594ZM714.75 198.742V195.254H716.953V191.214H720.809V195.254H726.5V198.742H720.809V210.493H726.684V213.981H716.953V198.742H714.75Z" fill="#9C9C9C"/>
<path d="M3.69702 273.145L12.3786 264.316C12.5492 264.142 12.829 264.142 12.9996 264.316L21.3707 272.829C21.5413 273.003 21.8211 273.003 21.9917 272.829L30.3628 264.316C30.5334 264.142 30.8132 264.142 30.9838 264.316L39.3549 272.829C39.5255 273.003 39.8053 273.003 39.9759 272.829L48.347 264.316C48.5176 264.142 48.7974 264.142 48.968 264.316L57.3391 272.829C57.5097 273.003 57.7895 273.003 57.9602 272.829L66.3312 264.316C66.5019 264.142 66.7816 264.142 66.9523 264.316L73.0647 270.532" stroke="black" stroke-opacity="0.15" stroke-width="1.74194"/>
<path d="M-16 291L-7.31842 282.171C-7.14778 281.997 -6.86802 281.997 -6.69738 282.171L1.67368 290.684C1.84432 290.858 2.12408 290.858 2.29472 290.684L10.6658 282.171C10.8364 281.997 11.1162 281.997 11.2868 282.171L19.6579 290.684C19.8285 290.858 20.1083 290.858 20.2789 290.684L28.65 282.171C28.8206 281.997 29.1004 281.997 29.271 282.171L37.6421 290.684C37.8127 290.858 38.0925 290.858 38.2631 290.684L46.6342 282.171C46.8048 281.997 47.0846 281.997 47.2552 282.171L53.3676 288.387" stroke="black" stroke-opacity="0.15" stroke-width="1.74194"/>
<path d="M847.368 58.1452L838.686 49.3158C838.515 49.1423 838.236 49.1423 838.065 49.3158L829.694 57.8294C829.523 58.0029 829.244 58.0029 829.073 57.8294L820.702 49.3158C820.531 49.1423 820.251 49.1423 820.081 49.3158L811.71 57.8294C811.539 58.0029 811.259 58.0029 811.089 57.8294L802.718 49.3158C802.547 49.1423 802.267 49.1423 802.097 49.3158L793.726 57.8294C793.555 58.0029 793.275 58.0029 793.105 57.8294L784.733 49.3158C784.563 49.1423 784.283 49.1423 784.112 49.3158L778 55.5323" stroke="black" stroke-opacity="0.15" stroke-width="1.74194"/>
<path d="M867.065 75.9999L858.383 67.1705C858.212 66.997 857.933 66.997 857.762 67.1705L849.391 75.6841C849.22 75.8576 848.941 75.8576 848.77 75.6841L840.399 67.1705C840.228 66.997 839.949 66.997 839.778 67.1705L831.407 75.6841C831.236 75.8576 830.956 75.8576 830.786 75.6841L822.415 67.1705C822.244 66.997 821.964 66.997 821.794 67.1705L813.423 75.6841C813.252 75.8576 812.972 75.8576 812.802 75.6841L804.431 67.1705C804.26 66.997 803.98 66.997 803.809 67.1705L797.697 73.387" stroke="black" stroke-opacity="0.15" stroke-width="1.74194"/>
<path d="M76.72 61.8719C76.72 64.154 74.9054 65.9744 72.7033 65.9744C70.5011 65.9744 68.6865 64.154 68.6865 61.8719C68.6865 59.5897 70.5011 57.7693 72.7033 57.7693C74.9054 57.7693 76.72 59.5897 76.72 61.8719Z" stroke="black" stroke-opacity="0.15" stroke-width="2.05128"/>
<path d="M544.059 262.128C544.059 264.41 542.245 266.231 540.042 266.231C537.84 266.231 536.026 264.41 536.026 262.128C536.026 259.846 537.84 258.026 540.042 258.026C542.245 258.026 544.059 259.846 544.059 262.128Z" stroke="black" stroke-opacity="0.15" stroke-width="2.05128"/>
<rect x="310.821" y="283.821" width="6.42677" height="6.5641" stroke="black" stroke-opacity="0.15" stroke-width="1.64103"/>
</g>
<defs>
<clipPath id="clip0">
<rect width="901" height="314" fill="white"/>
</clipPath>
</defs>
</svg>
