<svg width="901" height="314" viewBox="0 0 901 314" fill="none" xmlns="http://www.w3.org/2000/svg">
<g clip-path="url(#clip0)">
<rect width="901" height="314" rx="8" fill="#FBFBFB"/>
<path d="M410.233 139.923C408.082 137.516 407.007 134.37 407.007 130.486C407.007 126.603 408.082 123.473 410.233 121.098C412.416 118.69 415.112 117.487 418.322 117.487C420.472 117.487 422.414 118.129 424.148 119.412C424.886 120.022 425.512 120.664 426.025 121.338H426.266V118.209H433.007V142.764H426.266V139.634H426.025C425.512 140.309 424.886 140.95 424.148 141.56C422.414 142.844 420.472 143.486 418.322 143.486C415.112 143.486 412.416 142.299 410.233 139.923ZM415.674 125.19C414.55 126.474 413.988 128.24 413.988 130.486C413.988 132.733 414.55 134.499 415.674 135.783C416.797 137.067 418.241 137.709 420.007 137.709C421.869 137.709 423.377 137.083 424.533 135.831C425.688 134.547 426.266 132.765 426.266 130.486C426.266 128.207 425.688 126.442 424.533 125.19C423.377 123.906 421.869 123.264 420.007 123.264C418.241 123.264 416.797 123.906 415.674 125.19ZM434.933 142.764V118.209H441.673V121.579H441.914C442.331 120.841 442.925 120.167 443.695 119.557C445.461 118.177 447.435 117.487 449.618 117.487C452.667 117.487 455.026 118.369 456.695 120.135C458.396 121.9 459.247 124.468 459.247 127.838V142.764H452.506V128.801C452.506 127.004 452.057 125.64 451.158 124.709C450.292 123.746 449.056 123.264 447.451 123.264C445.846 123.264 444.482 123.874 443.358 125.094C442.235 126.314 441.673 127.87 441.673 129.764V142.764H434.933ZM463.308 139.731C460.773 137.195 459.505 134.114 459.505 130.486C459.505 126.859 460.773 123.794 463.308 121.29C465.876 118.754 469.022 117.487 472.745 117.487C477.207 117.487 480.609 119.092 482.953 122.301C484.012 123.682 484.782 125.286 485.264 127.116H478.282C477.993 126.41 477.608 125.768 477.127 125.19C475.907 123.906 474.447 123.264 472.745 123.264C471.044 123.264 469.568 123.938 468.316 125.286C467.096 126.635 466.486 128.368 466.486 130.486C466.486 132.605 467.096 134.338 468.316 135.686C469.568 137.034 471.044 137.709 472.745 137.709C474.447 137.709 475.907 137.067 477.127 135.783C477.608 135.205 477.993 134.563 478.282 133.857H485.264C484.814 135.718 484.076 137.323 483.049 138.671C480.706 141.881 477.271 143.486 472.745 143.486C469.022 143.486 465.876 142.234 463.308 139.731ZM488.102 139.731C485.567 137.195 484.299 134.114 484.299 130.486C484.299 126.859 485.567 123.794 488.102 121.29C490.67 118.754 493.816 117.487 497.539 117.487C501.327 117.487 504.441 118.738 506.88 121.242C509.319 123.746 510.539 126.827 510.539 130.486V131.931H491.28C491.537 133.536 492.259 134.9 493.447 136.023C494.634 137.147 495.999 137.709 497.539 137.709C499.241 137.709 500.701 137.227 501.921 136.264C502.402 135.847 502.787 135.365 503.076 134.82H510.298C509.753 136.457 508.95 137.901 507.891 139.153C505.323 142.042 501.873 143.486 497.539 143.486C493.816 143.486 490.67 142.234 488.102 139.731ZM491.521 127.838H503.317C503.06 126.554 502.402 125.479 501.343 124.612C500.316 123.714 499.048 123.264 497.539 123.264C496.031 123.264 494.747 123.698 493.688 124.564C492.628 125.431 491.906 126.522 491.521 127.838ZM509.557 134.82H516.539C516.764 135.397 517.117 135.927 517.598 136.409C518.625 137.436 520.038 137.949 521.835 137.949C524.563 137.949 525.928 137.147 525.928 135.542C525.928 135.285 525.863 135.06 525.735 134.868C525.607 134.643 525.382 134.451 525.061 134.29C524.74 134.097 524.435 133.937 524.146 133.809C523.857 133.68 523.424 133.552 522.846 133.423C522.3 133.263 521.851 133.151 521.498 133.086C521.177 133.022 520.647 132.91 519.909 132.749C519.203 132.589 518.689 132.477 518.368 132.412C513.297 131.321 510.761 128.833 510.761 124.949C510.761 122.895 511.676 121.146 513.506 119.701C515.367 118.225 517.903 117.487 521.113 117.487C525.414 117.487 528.64 118.819 530.791 121.483C531.721 122.638 532.347 123.954 532.668 125.431H525.928C525.703 124.949 525.414 124.548 525.061 124.227C524.066 123.425 522.75 123.024 521.113 123.024C519.957 123.024 519.107 123.216 518.561 123.601C518.015 123.954 517.743 124.404 517.743 124.949C517.743 125.142 517.775 125.335 517.839 125.527C517.935 125.688 518.08 125.848 518.272 126.009C518.465 126.137 518.657 126.265 518.85 126.394C519.043 126.49 519.315 126.603 519.668 126.731C520.022 126.827 520.326 126.923 520.583 127.02C520.872 127.116 521.241 127.212 521.691 127.309C522.14 127.405 522.525 127.485 522.846 127.549C523.167 127.614 523.584 127.71 524.098 127.838C524.612 127.935 525.029 128.015 525.35 128.079C530.389 129.202 532.909 131.69 532.909 135.542C532.909 137.692 531.914 139.554 529.924 141.127C527.934 142.7 525.237 143.486 521.835 143.486C517.277 143.486 513.907 142.042 511.724 139.153C510.729 137.837 510.007 136.393 509.557 134.82ZM531.478 123.986V118.209H534.607V112.913H541.348V118.209H548.281V123.986H541.348V136.986H548.57V142.764H534.607V123.986H531.478ZM551.436 139.731C548.869 137.195 547.585 134.114 547.585 130.486C547.585 126.859 548.869 123.794 551.436 121.29C554.004 118.754 557.214 117.487 561.066 117.487C564.886 117.487 568.079 118.754 570.647 121.29C573.247 123.794 574.547 126.859 574.547 130.486C574.547 134.114 573.247 137.195 570.647 139.731C568.079 142.234 564.886 143.486 561.066 143.486C557.214 143.486 554.004 142.234 551.436 139.731ZM556.444 125.286C555.192 126.635 554.566 128.368 554.566 130.486C554.566 132.605 555.192 134.338 556.444 135.686C557.696 137.034 559.236 137.709 561.066 137.709C562.895 137.709 564.436 137.034 565.688 135.686C566.94 134.338 567.566 132.605 567.566 130.486C567.566 128.368 566.94 126.635 565.688 125.286C564.436 123.938 562.895 123.264 561.066 123.264C559.236 123.264 557.696 123.938 556.444 125.286ZM575.046 142.764V118.209H581.786V121.82H582.027C582.316 121.05 582.749 120.375 583.327 119.798C584.643 118.417 586.296 117.727 588.286 117.727H591.175V124.227H587.564C585.734 124.227 584.306 124.725 583.279 125.72C582.284 126.683 581.786 128.031 581.786 129.764V142.764H575.046Z" fill="black"/>
<path d="M313.688 152.443L340.496 106.137L367.305 152.443H313.688Z" stroke="black" stroke-width="4.14604"/>
<path d="M328.889 152.443L355.698 106.137L382.507 152.443H328.889Z" stroke="black" stroke-width="4.14604"/>
<path d="M204.415 202.575V182.294H207.747V199.388H218.032V202.575H204.415ZM219.424 200.749C218.111 199.32 217.454 197.466 217.454 195.187C217.454 192.907 218.111 191.063 219.424 189.653C220.757 188.223 222.418 187.509 224.407 187.509C225.663 187.509 226.812 187.876 227.855 188.61C228.299 188.919 228.695 189.276 229.043 189.682H229.188V187.798H232.23V202.575H229.188V200.547H229.043C228.753 200.952 228.357 201.339 227.855 201.706C226.812 202.478 225.663 202.864 224.407 202.864C222.418 202.864 220.757 202.159 219.424 200.749ZM221.8 191.536C221.027 192.386 220.641 193.603 220.641 195.187C220.641 196.77 221.027 197.987 221.8 198.837C222.572 199.687 223.635 200.112 224.987 200.112C226.262 200.112 227.276 199.687 228.029 198.837C228.802 197.968 229.188 196.751 229.188 195.187C229.188 193.622 228.802 192.415 228.029 191.565C227.276 190.696 226.262 190.261 224.987 190.261C223.635 190.261 222.572 190.686 221.8 191.536ZM232.798 187.798H235.985L239.172 199.677H240.766L244.243 187.798H247.43L241.345 208.08H238.158L239.897 202.575H236.855L232.798 187.798ZM248.901 200.663C247.433 199.175 246.699 197.35 246.699 195.187C246.699 193.023 247.433 191.208 248.901 189.74C250.388 188.252 252.213 187.509 254.376 187.509C256.54 187.509 258.355 188.252 259.823 189.74C261.311 191.208 262.054 193.023 262.054 195.187C262.054 197.35 261.311 199.175 259.823 200.663C258.355 202.13 256.54 202.864 254.376 202.864C252.213 202.864 250.388 202.13 248.901 200.663ZM251.132 191.623C250.301 192.511 249.886 193.699 249.886 195.187C249.886 196.674 250.301 197.871 251.132 198.779C251.962 199.668 253.044 200.112 254.376 200.112C255.709 200.112 256.791 199.668 257.621 198.779C258.452 197.871 258.867 196.674 258.867 195.187C258.867 193.699 258.452 192.511 257.621 191.623C256.791 190.715 255.709 190.261 254.376 190.261C253.044 190.261 251.962 190.715 251.132 191.623ZM263.209 196.635V187.798H266.251V196.346C266.251 197.64 266.531 198.596 267.091 199.214C267.671 199.813 268.549 200.112 269.728 200.112C270.906 200.112 271.872 199.716 272.625 198.924C273.398 198.113 273.784 197.06 273.784 195.766V187.798H276.826V202.575H273.784V200.547H273.639C273.407 200.933 273.05 201.319 272.567 201.706C271.524 202.478 270.336 202.864 269.003 202.864C267.168 202.864 265.739 202.333 264.715 201.271C263.711 200.209 263.209 198.663 263.209 196.635ZM277.691 190.551V187.798H279.429V184.611H282.471V187.798H286.962V190.551H282.471V199.822H287.107V202.575H279.429V190.551H277.691ZM294.938 208.08V187.798H297.98V189.682H298.125C298.472 189.276 298.868 188.919 299.313 188.61C300.356 187.876 301.505 187.509 302.76 187.509C304.75 187.509 306.401 188.223 307.715 189.653C309.048 191.063 309.714 192.907 309.714 195.187C309.714 197.466 309.048 199.32 307.715 200.749C306.401 202.159 304.75 202.864 302.76 202.864C301.486 202.864 300.336 202.507 299.313 201.792C298.849 201.464 298.453 201.097 298.125 200.692H297.98V208.08H294.938ZM299.11 191.565C298.357 192.415 297.98 193.622 297.98 195.187C297.98 196.751 298.357 197.968 299.11 198.837C299.882 199.687 300.906 200.112 302.181 200.112C303.533 200.112 304.595 199.687 305.368 198.837C306.141 197.987 306.527 196.77 306.527 195.187C306.527 193.603 306.141 192.386 305.368 191.536C304.595 190.686 303.533 190.261 302.181 190.261C300.906 190.261 299.882 190.696 299.11 191.565ZM310.862 202.575V187.798H313.904V189.971H314.049C314.261 189.566 314.57 189.18 314.976 188.813C315.864 188.04 316.907 187.654 318.105 187.654H319.843V190.551H317.96C316.782 190.551 315.806 190.928 315.034 191.681C314.28 192.415 313.904 193.39 313.904 194.607V202.575H310.862ZM320.934 185.104C320.586 184.756 320.413 184.331 320.413 183.829C320.413 183.327 320.586 182.902 320.934 182.554C321.282 182.187 321.707 182.004 322.209 182.004C322.711 182.004 323.136 182.187 323.484 182.554C323.851 182.902 324.034 183.327 324.034 183.829C324.034 184.331 323.851 184.756 323.484 185.104C323.136 185.452 322.711 185.625 322.209 185.625C321.707 185.625 321.282 185.452 320.934 185.104ZM320.702 202.575V187.798H323.744V202.575H320.702ZM325.761 202.575V187.798H328.803V189.827H328.948C329.199 189.402 329.528 189.015 329.933 188.668C330.86 187.895 331.981 187.509 333.294 187.509C334.859 187.509 336.124 187.972 337.09 188.899C337.495 189.286 337.824 189.74 338.075 190.261H338.22C338.49 189.759 338.867 189.305 339.35 188.899C340.393 187.972 341.706 187.509 343.29 187.509C345.009 187.509 346.351 188.05 347.317 189.131C348.302 190.194 348.795 191.729 348.795 193.738V202.575H345.753V193.883C345.753 191.468 344.69 190.261 342.566 190.261C341.542 190.261 340.653 190.667 339.9 191.478C339.166 192.27 338.799 193.265 338.799 194.462V202.575H335.757V193.883C335.757 191.468 334.695 190.261 332.57 190.261C331.546 190.261 330.658 190.667 329.904 191.478C329.17 192.27 328.803 193.265 328.803 194.462V202.575H325.761ZM350.914 185.104C350.567 184.756 350.393 184.331 350.393 183.829C350.393 183.327 350.567 182.902 350.914 182.554C351.262 182.187 351.687 182.004 352.189 182.004C352.691 182.004 353.116 182.187 353.464 182.554C353.831 182.902 354.015 183.327 354.015 183.829C354.015 184.331 353.831 184.756 353.464 185.104C353.116 185.452 352.691 185.625 352.189 185.625C351.687 185.625 351.262 185.452 350.914 185.104ZM350.683 202.575V187.798H353.725V202.575H350.683ZM354.583 190.551V187.798H356.321V184.611H359.363V187.798H363.854V190.551H359.363V199.822H363.999V202.575H356.321V190.551H354.583ZM365.39 185.104C365.042 184.756 364.868 184.331 364.868 183.829C364.868 183.327 365.042 182.902 365.39 182.554C365.737 182.187 366.162 182.004 366.664 182.004C367.167 182.004 367.592 182.187 367.939 182.554C368.306 182.902 368.49 183.327 368.49 183.829C368.49 184.331 368.306 184.756 367.939 185.104C367.592 185.452 367.167 185.625 366.664 185.625C366.162 185.625 365.737 185.452 365.39 185.104ZM365.158 202.575V187.798H368.2V202.575H365.158ZM368.768 187.798H371.955L375.142 199.822H377.025L380.213 187.798H383.4L379.343 202.575H372.824L368.768 187.798ZM385.294 200.663C383.845 199.175 383.121 197.35 383.121 195.187C383.121 193.023 383.845 191.208 385.294 189.74C386.762 188.252 388.549 187.509 390.654 187.509C392.76 187.509 394.537 188.252 395.985 189.74C397.453 191.208 398.187 193.023 398.187 195.187V196.201H386.163C386.395 197.418 386.926 198.374 387.757 199.069C388.587 199.764 389.553 200.112 390.654 200.112C392.006 200.112 393.088 199.774 393.899 199.098C394.266 198.828 394.585 198.49 394.855 198.084H398.042C397.637 199.03 397.125 199.832 396.507 200.489C394.923 202.073 392.972 202.864 390.654 202.864C388.549 202.864 386.762 202.13 385.294 200.663ZM386.308 193.738H395C394.826 192.772 394.363 191.951 393.609 191.275C392.875 190.599 391.89 190.261 390.654 190.261C389.611 190.261 388.684 190.58 387.873 191.217C387.061 191.835 386.54 192.676 386.308 193.738ZM398.334 197.939H401.666C401.801 198.325 402.043 198.692 402.391 199.04C403.105 199.755 404.071 200.112 405.288 200.112C406.35 200.112 407.123 199.948 407.606 199.619C408.089 199.291 408.33 198.876 408.33 198.374C408.33 198.2 408.291 198.045 408.214 197.91C408.137 197.756 408.002 197.62 407.808 197.504C407.615 197.389 407.432 197.292 407.258 197.215C407.084 197.118 406.823 197.031 406.476 196.954C406.128 196.857 405.848 196.79 405.636 196.751C405.423 196.693 405.095 196.616 404.65 196.519C404.225 196.423 403.907 196.355 403.694 196.317C400.604 195.621 399.059 194.134 399.059 191.855C399.059 190.696 399.59 189.682 400.652 188.813C401.714 187.943 403.115 187.509 404.853 187.509C407.268 187.509 409.074 188.281 410.271 189.827C410.812 190.503 411.179 191.275 411.372 192.144H408.185C408.031 191.758 407.818 191.449 407.548 191.217C406.872 190.58 405.974 190.261 404.853 190.261C403.984 190.261 403.327 190.416 402.883 190.725C402.458 191.034 402.246 191.42 402.246 191.884C402.246 192.058 402.284 192.222 402.362 192.376C402.439 192.511 402.574 192.637 402.767 192.753C402.96 192.869 403.144 192.965 403.318 193.043C403.511 193.12 403.772 193.207 404.1 193.303C404.428 193.381 404.708 193.448 404.94 193.506C405.172 193.545 405.491 193.612 405.896 193.709C406.321 193.786 406.65 193.854 406.881 193.912C409.972 194.607 411.517 196.094 411.517 198.374C411.517 199.61 410.957 200.672 409.837 201.561C408.736 202.43 407.219 202.864 405.288 202.864C402.777 202.864 400.855 202.044 399.522 200.402C398.923 199.648 398.527 198.828 398.334 197.939ZM418.182 190.551V187.798H419.92V182.294H427.309V185.046H422.963V187.798H426.439V190.551H422.963V202.575H419.92V190.551H418.182ZM428.647 200.663C427.179 199.175 426.445 197.35 426.445 195.187C426.445 193.023 427.179 191.208 428.647 189.74C430.134 188.252 431.96 187.509 434.123 187.509C436.286 187.509 438.102 188.252 439.57 189.74C441.057 191.208 441.801 193.023 441.801 195.187C441.801 197.35 441.057 199.175 439.57 200.663C438.102 202.13 436.286 202.864 434.123 202.864C431.96 202.864 430.134 202.13 428.647 200.663ZM430.878 191.623C430.047 192.511 429.632 193.699 429.632 195.187C429.632 196.674 430.047 197.871 430.878 198.779C431.708 199.668 432.79 200.112 434.123 200.112C435.456 200.112 436.537 199.668 437.368 198.779C438.198 197.871 438.614 196.674 438.614 195.187C438.614 193.699 438.198 192.511 437.368 191.623C436.537 190.715 435.456 190.261 434.123 190.261C432.79 190.261 431.708 190.715 430.878 191.623ZM442.955 202.575V187.798H445.997V189.971H446.142C446.355 189.566 446.664 189.18 447.069 188.813C447.958 188.04 449.001 187.654 450.198 187.654H451.937V190.551H450.054C448.875 190.551 447.9 190.928 447.127 191.681C446.374 192.415 445.997 193.39 445.997 194.607V202.575H442.955ZM459.757 202.575V182.294H468.594C470.989 182.294 472.892 182.912 474.302 184.148C475.712 185.384 476.417 186.939 476.417 188.813C476.417 190.3 475.953 191.613 475.026 192.753C474.118 193.873 472.843 194.636 471.202 195.042L476.272 202.575H472.361L467.58 195.331H463.089V202.575H459.757ZM463.089 192.144H468.594C471.491 192.144 472.94 191.034 472.94 188.813C472.94 186.591 471.491 185.481 468.594 185.481H463.089V192.144ZM478.761 200.663C477.312 199.175 476.588 197.35 476.588 195.187C476.588 193.023 477.312 191.208 478.761 189.74C480.229 188.252 482.015 187.509 484.121 187.509C486.226 187.509 488.003 188.252 489.452 189.74C490.92 191.208 491.654 193.023 491.654 195.187V196.201H479.63C479.862 197.418 480.393 198.374 481.223 199.069C482.054 199.764 483.02 200.112 484.121 200.112C485.473 200.112 486.554 199.774 487.366 199.098C487.733 198.828 488.051 198.49 488.322 198.084H491.509C491.103 199.03 490.591 199.832 489.973 200.489C488.389 202.073 486.438 202.864 484.121 202.864C482.015 202.864 480.229 202.13 478.761 200.663ZM479.775 193.738H488.467C488.293 192.772 487.829 191.951 487.076 191.275C486.342 190.599 485.357 190.261 484.121 190.261C483.078 190.261 482.15 190.58 481.339 191.217C480.528 191.835 480.006 192.676 479.775 193.738ZM492.091 196.49H495.567C495.703 197.166 495.983 197.775 496.408 198.316C497.335 199.513 498.745 200.112 500.638 200.112C502.164 200.112 503.293 199.842 504.027 199.301C504.761 198.741 505.128 197.997 505.128 197.07C505.128 196.336 504.79 195.747 504.114 195.303C503.458 194.858 502.511 194.472 501.275 194.144C498.861 193.525 497.238 193.014 496.408 192.608C494.109 191.546 492.96 189.942 492.96 187.798C492.96 186.157 493.655 184.737 495.046 183.539C496.436 182.323 498.252 181.714 500.493 181.714C503.467 181.714 505.679 182.709 507.128 184.698C507.746 185.548 508.19 186.533 508.46 187.654H504.984C504.848 187.113 504.607 186.63 504.259 186.205C503.448 185.239 502.192 184.756 500.493 184.756C499.179 184.756 498.175 185.027 497.48 185.568C496.784 186.108 496.436 186.804 496.436 187.654C496.436 188.928 497.721 189.914 500.29 190.609C500.502 190.667 500.908 190.783 501.507 190.957C502.106 191.111 502.531 191.237 502.782 191.333C503.052 191.41 503.458 191.546 503.998 191.739C504.559 191.913 504.974 192.077 505.244 192.231C505.515 192.386 505.862 192.589 506.287 192.84C506.712 193.072 507.031 193.323 507.243 193.593C507.475 193.844 507.707 194.134 507.939 194.462C508.19 194.791 508.364 195.167 508.46 195.592C508.557 195.998 508.605 196.442 508.605 196.925C508.605 198.663 507.881 200.141 506.432 201.358C505.003 202.555 503.071 203.154 500.638 203.154C497.393 203.154 495.007 202.044 493.481 199.822C492.786 198.876 492.322 197.765 492.091 196.49ZM511.286 200.692C509.876 199.243 509.171 197.408 509.171 195.187C509.171 192.965 509.876 191.13 511.286 189.682C512.696 188.233 514.454 187.509 516.559 187.509C518.916 187.509 520.838 188.407 522.325 190.203C522.962 191.034 523.407 191.922 523.658 192.869H520.471C520.335 192.386 520.084 191.951 519.717 191.565C518.964 190.696 517.911 190.261 516.559 190.261C515.362 190.261 514.357 190.715 513.546 191.623C512.754 192.531 512.358 193.719 512.358 195.187C512.358 196.655 512.754 197.842 513.546 198.75C514.357 199.658 515.362 200.112 516.559 200.112C517.95 200.112 519.041 199.677 519.833 198.808C520.181 198.422 520.442 197.987 520.615 197.504H523.658C523.407 198.49 522.962 199.388 522.325 200.199C520.857 201.976 518.935 202.864 516.559 202.864C514.454 202.864 512.696 202.14 511.286 200.692ZM524.663 202.575V187.798H527.705V189.971H527.85C528.062 189.566 528.371 189.18 528.777 188.813C529.665 188.04 530.708 187.654 531.906 187.654H533.644V190.551H531.761C530.583 190.551 529.607 190.928 528.835 191.681C528.081 192.415 527.705 193.39 527.705 194.607V202.575H524.663ZM534.735 185.104C534.387 184.756 534.214 184.331 534.214 183.829C534.214 183.327 534.387 182.902 534.735 182.554C535.083 182.187 535.508 182.004 536.01 182.004C536.512 182.004 536.937 182.187 537.285 182.554C537.652 182.902 537.835 183.327 537.835 183.829C537.835 184.331 537.652 184.756 537.285 185.104C536.937 185.452 536.512 185.625 536.01 185.625C535.508 185.625 535.083 185.452 534.735 185.104ZM534.503 202.575V187.798H537.545V202.575H534.503ZM539.562 208.08V187.798H542.604V189.682H542.749C543.097 189.276 543.493 188.919 543.937 188.61C544.98 187.876 546.129 187.509 547.385 187.509C549.374 187.509 551.026 188.223 552.339 189.653C553.672 191.063 554.339 192.907 554.339 195.187C554.339 197.466 553.672 199.32 552.339 200.749C551.026 202.159 549.374 202.864 547.385 202.864C546.11 202.864 544.961 202.507 543.937 201.792C543.474 201.464 543.078 201.097 542.749 200.692H542.604V208.08H539.562ZM543.734 191.565C542.981 192.415 542.604 193.622 542.604 195.187C542.604 196.751 542.981 197.968 543.734 198.837C544.507 199.687 545.531 200.112 546.806 200.112C548.158 200.112 549.22 199.687 549.993 198.837C550.765 197.987 551.151 196.77 551.151 195.187C551.151 193.603 550.765 192.386 549.993 191.536C549.22 190.686 548.158 190.261 546.806 190.261C545.531 190.261 544.507 190.696 543.734 191.565ZM554.327 190.551V187.798H556.066V184.611H559.108V187.798H563.599V190.551H559.108V199.822H563.743V202.575H556.066V190.551H554.327ZM572.675 200.749C571.362 199.32 570.705 197.466 570.705 195.187C570.705 192.907 571.362 191.063 572.675 189.653C574.008 188.223 575.669 187.509 577.658 187.509C578.914 187.509 580.063 187.876 581.106 188.61C581.551 188.919 581.947 189.276 582.294 189.682H582.439V187.798H585.481V202.575H582.439V200.547H582.294C582.004 200.952 581.608 201.339 581.106 201.706C580.063 202.478 578.914 202.864 577.658 202.864C575.669 202.864 574.008 202.159 572.675 200.749ZM575.051 191.536C574.278 192.386 573.892 193.603 573.892 195.187C573.892 196.77 574.278 197.987 575.051 198.837C575.824 199.687 576.886 200.112 578.238 200.112C579.513 200.112 580.527 199.687 581.28 198.837C582.053 197.968 582.439 196.751 582.439 195.187C582.439 193.622 582.053 192.415 581.28 191.565C580.527 190.696 579.513 190.261 578.238 190.261C576.886 190.261 575.824 190.686 575.051 191.536ZM587.498 202.575V187.798H590.54V189.827H590.685C590.917 189.44 591.274 189.054 591.757 188.668C592.8 187.895 593.988 187.509 595.321 187.509C597.156 187.509 598.575 188.04 599.58 189.102C600.604 190.165 601.115 191.71 601.115 193.738V202.575H598.073V194.028C598.073 192.734 597.783 191.787 597.204 191.188C596.644 190.57 595.775 190.261 594.596 190.261C593.418 190.261 592.443 190.667 591.67 191.478C590.917 192.27 590.54 193.313 590.54 194.607V202.575H587.498ZM604.098 200.749C602.785 199.32 602.128 197.466 602.128 195.187C602.128 192.907 602.785 191.063 604.098 189.653C605.431 188.223 607.092 187.509 609.082 187.509C610.337 187.509 611.487 187.876 612.53 188.61C612.974 188.919 613.37 189.276 613.718 189.682H613.862V182.294H616.905V202.575H613.862V200.692H613.718C613.389 201.097 612.993 201.464 612.53 201.792C611.506 202.507 610.357 202.864 609.082 202.864C607.092 202.864 605.431 202.159 604.098 200.749ZM606.474 191.536C605.702 192.386 605.315 193.603 605.315 195.187C605.315 196.77 605.702 197.987 606.474 198.837C607.247 199.687 608.309 200.112 609.661 200.112C610.936 200.112 611.95 199.687 612.703 198.837C613.476 197.968 613.862 196.751 613.862 195.187C613.862 193.622 613.476 192.415 612.703 191.565C611.95 190.696 610.936 190.261 609.661 190.261C608.309 190.261 607.247 190.686 606.474 191.536ZM625.883 202.575V182.294H634.72C637.115 182.294 639.017 182.912 640.427 184.148C641.837 185.384 642.542 186.939 642.542 188.813C642.542 190.3 642.079 191.613 641.152 192.753C640.244 193.873 638.969 194.636 637.327 195.042L642.398 202.575H638.486L633.706 195.331H629.215V202.575H625.883ZM629.215 192.144H634.72C637.617 192.144 639.066 191.034 639.066 188.813C639.066 186.591 637.617 185.481 634.72 185.481H629.215V192.144ZM644.886 200.663C643.438 199.175 642.713 197.35 642.713 195.187C642.713 193.023 643.438 191.208 644.886 189.74C646.354 188.252 648.141 187.509 650.246 187.509C652.352 187.509 654.129 188.252 655.577 189.74C657.045 191.208 657.779 193.023 657.779 195.187V196.201H645.755C645.987 197.418 646.518 198.374 647.349 199.069C648.18 199.764 649.145 200.112 650.246 200.112C651.598 200.112 652.68 199.774 653.491 199.098C653.858 198.828 654.177 198.49 654.447 198.084H657.634C657.229 199.03 656.717 199.832 656.099 200.489C654.515 202.073 652.564 202.864 650.246 202.864C648.141 202.864 646.354 202.13 644.886 200.663ZM645.9 193.738H654.592C654.418 192.772 653.955 191.951 653.202 191.275C652.468 190.599 651.482 190.261 650.246 190.261C649.203 190.261 648.276 190.58 647.465 191.217C646.654 191.835 646.132 192.676 645.9 193.738ZM660.041 200.749C658.728 199.32 658.071 197.466 658.071 195.187C658.071 192.907 658.728 191.063 660.041 189.653C661.374 188.223 663.035 187.509 665.025 187.509C666.28 187.509 667.43 187.876 668.473 188.61C668.917 188.919 669.313 189.276 669.661 189.682H669.805V187.798H672.848V202.575H669.805V200.547H669.661C669.371 200.952 668.975 201.339 668.473 201.706C667.43 202.478 666.28 202.864 665.025 202.864C663.035 202.864 661.374 202.159 660.041 200.749ZM662.417 191.536C661.645 192.386 661.258 193.603 661.258 195.187C661.258 196.77 661.645 197.987 662.417 198.837C663.19 199.687 664.252 200.112 665.604 200.112C666.879 200.112 667.893 199.687 668.646 198.837C669.419 197.968 669.805 196.751 669.805 195.187C669.805 193.622 669.419 192.415 668.646 191.565C667.893 190.696 666.879 190.261 665.604 190.261C664.252 190.261 663.19 190.686 662.417 191.536ZM676.11 200.692C674.7 199.243 673.995 197.408 673.995 195.187C673.995 192.965 674.7 191.13 676.11 189.682C677.52 188.233 679.278 187.509 681.383 187.509C683.74 187.509 685.662 188.407 687.149 190.203C687.786 191.034 688.231 191.922 688.482 192.869H685.295C685.159 192.386 684.908 191.951 684.541 191.565C683.788 190.696 682.735 190.261 681.383 190.261C680.186 190.261 679.181 190.715 678.37 191.623C677.578 192.531 677.182 193.719 677.182 195.187C677.182 196.655 677.578 197.842 678.37 198.75C679.181 199.658 680.186 200.112 681.383 200.112C682.774 200.112 683.865 199.677 684.657 198.808C685.005 198.422 685.266 197.987 685.44 197.504H688.482C688.231 198.49 687.786 199.388 687.149 200.199C685.681 201.976 683.759 202.864 681.383 202.864C679.278 202.864 677.52 202.14 676.11 200.692ZM688.328 190.551V187.798H690.066V184.611H693.108V187.798H697.599V190.551H693.108V199.822H697.744V202.575H690.066V190.551H688.328Z" fill="#9C9C9C"/>
<path d="M3.69702 273.145L12.3786 264.316C12.5492 264.142 12.829 264.142 12.9996 264.316L21.3707 272.829C21.5413 273.003 21.8211 273.003 21.9917 272.829L30.3628 264.316C30.5334 264.142 30.8132 264.142 30.9838 264.316L39.3549 272.829C39.5255 273.003 39.8053 273.003 39.9759 272.829L48.347 264.316C48.5176 264.142 48.7974 264.142 48.968 264.316L57.3391 272.829C57.5097 273.003 57.7895 273.003 57.9602 272.829L66.3312 264.316C66.5019 264.142 66.7816 264.142 66.9523 264.316L73.0647 270.532" stroke="black" stroke-opacity="0.15" stroke-width="1.74194"/>
<path d="M-16 291L-7.31842 282.171C-7.14778 281.997 -6.86802 281.997 -6.69738 282.171L1.67368 290.684C1.84432 290.858 2.12408 290.858 2.29472 290.684L10.6658 282.171C10.8364 281.997 11.1162 281.997 11.2868 282.171L19.6579 290.684C19.8285 290.858 20.1083 290.858 20.2789 290.684L28.65 282.171C28.8206 281.997 29.1004 281.997 29.271 282.171L37.6421 290.684C37.8127 290.858 38.0925 290.858 38.2631 290.684L46.6342 282.171C46.8048 281.997 47.0846 281.997 47.2552 282.171L53.3676 288.387" stroke="black" stroke-opacity="0.15" stroke-width="1.74194"/>
<path d="M847.368 58.1452L838.686 49.3158C838.515 49.1423 838.236 49.1423 838.065 49.3158L829.694 57.8294C829.523 58.0029 829.244 58.0029 829.073 57.8294L820.702 49.3158C820.531 49.1423 820.251 49.1423 820.081 49.3158L811.71 57.8294C811.539 58.0029 811.259 58.0029 811.089 57.8294L802.718 49.3158C802.547 49.1423 802.267 49.1423 802.097 49.3158L793.726 57.8294C793.555 58.0029 793.275 58.0029 793.105 57.8294L784.733 49.3158C784.563 49.1423 784.283 49.1423 784.112 49.3158L778 55.5323" stroke="black" stroke-opacity="0.15" stroke-width="1.74194"/>
<path d="M867.065 76L858.383 67.1706C858.212 66.9971 857.933 66.9971 857.762 67.1706L849.391 75.6842C849.22 75.8577 848.941 75.8577 848.77 75.6842L840.399 67.1706C840.228 66.9971 839.949 66.9971 839.778 67.1706L831.407 75.6842C831.236 75.8577 830.956 75.8577 830.786 75.6842L822.415 67.1706C822.244 66.9971 821.964 66.9971 821.794 67.1706L813.423 75.6842C813.252 75.8577 812.972 75.8577 812.802 75.6842L804.431 67.1706C804.26 66.9971 803.98 66.9971 803.809 67.1706L797.697 73.3871" stroke="black" stroke-opacity="0.15" stroke-width="1.74194"/>
<path d="M76.72 61.8718C76.72 64.154 74.9054 65.9744 72.7033 65.9744C70.5011 65.9744 68.6865 64.154 68.6865 61.8718C68.6865 59.5896 70.5011 57.7692 72.7033 57.7692C74.9054 57.7692 76.72 59.5896 76.72 61.8718Z" stroke="black" stroke-opacity="0.15" stroke-width="2.05128"/>
<path d="M544.059 262.128C544.059 264.41 542.245 266.231 540.042 266.231C537.84 266.231 536.026 264.41 536.026 262.128C536.026 259.846 537.84 258.026 540.042 258.026C542.245 258.026 544.059 259.846 544.059 262.128Z" stroke="black" stroke-opacity="0.15" stroke-width="2.05128"/>
<rect x="310.821" y="283.821" width="6.42677" height="6.5641" stroke="black" stroke-opacity="0.15" stroke-width="1.64103"/>
</g>
<defs>
<clipPath id="clip0">
<rect width="901" height="314" fill="white"/>
</clipPath>
</defs>
</svg>
