<svg width="901" height="314" viewBox="0 0 901 314" fill="none" xmlns="http://www.w3.org/2000/svg">
<g clip-path="url(#clip0)">
<rect width="901" height="314" rx="8" fill="#FBFBFB"/>
<path d="M399.914 134.903C397.188 131.852 395.825 127.865 395.825 122.943C395.825 118.02 397.188 114.054 399.914 111.043C402.68 107.992 406.097 106.467 410.165 106.467C412.891 106.467 415.352 107.28 417.549 108.907C418.485 109.68 419.278 110.494 419.929 111.348H420.234V107.382H428.777V138.503H420.234V134.537H419.929C419.278 135.391 418.485 136.205 417.549 136.978C415.352 138.605 412.891 139.418 410.165 139.418C406.097 139.418 402.68 137.913 399.914 134.903ZM406.809 116.23C405.385 117.857 404.673 120.095 404.673 122.943C404.673 125.79 405.385 128.028 406.809 129.655C408.233 131.282 410.064 132.096 412.301 132.096C414.661 132.096 416.573 131.303 418.037 129.716C419.502 128.089 420.234 125.831 420.234 122.943C420.234 120.054 419.502 117.817 418.037 116.23C416.573 114.603 414.661 113.789 412.301 113.789C410.064 113.789 408.233 114.603 406.809 116.23ZM431.218 138.503V107.382H439.761V111.653H440.066C440.595 110.718 441.348 109.863 442.324 109.091C444.562 107.341 447.063 106.467 449.83 106.467C453.694 106.467 456.685 107.585 458.8 109.823C460.956 112.06 462.034 115.315 462.034 119.586V138.503H453.491V120.807C453.491 118.529 452.922 116.8 451.782 115.62C450.684 114.399 449.118 113.789 447.084 113.789C445.05 113.789 443.321 114.562 441.897 116.108C440.473 117.654 439.761 119.627 439.761 122.027V138.503H431.218ZM467.181 134.659C463.968 131.445 462.361 127.539 462.361 122.943C462.361 118.346 463.968 114.46 467.181 111.287C470.436 108.073 474.423 106.467 479.142 106.467C484.796 106.467 489.109 108.501 492.078 112.569C493.421 114.318 494.397 116.352 495.007 118.671H486.159C485.793 117.776 485.305 116.962 484.695 116.23C483.149 114.603 481.298 113.789 479.142 113.789C476.986 113.789 475.114 114.644 473.528 116.352C471.982 118.061 471.209 120.258 471.209 122.943C471.209 125.627 471.982 127.824 473.528 129.533C475.114 131.242 476.986 132.096 479.142 132.096C481.298 132.096 483.149 131.282 484.695 129.655C485.305 128.923 485.793 128.109 486.159 127.214H495.007C494.438 129.574 493.502 131.608 492.2 133.316C489.231 137.384 484.878 139.418 479.142 139.418C474.423 139.418 470.436 137.832 467.181 134.659ZM498.605 134.659C495.392 131.445 493.785 127.539 493.785 122.943C493.785 118.346 495.392 114.46 498.605 111.287C501.86 108.073 505.847 106.467 510.566 106.467C515.366 106.467 519.312 108.053 522.404 111.226C525.496 114.399 527.042 118.305 527.042 122.943V124.773H502.633C502.958 126.807 503.874 128.536 505.379 129.96C506.884 131.384 508.613 132.096 510.566 132.096C512.722 132.096 514.573 131.486 516.119 130.265C516.729 129.736 517.217 129.126 517.583 128.434H526.737C526.045 130.509 525.028 132.34 523.685 133.926C520.431 137.588 516.058 139.418 510.566 139.418C505.847 139.418 501.86 137.832 498.605 134.659ZM502.938 119.586H517.888C517.563 117.959 516.729 116.596 515.386 115.498C514.085 114.359 512.478 113.789 510.566 113.789C508.654 113.789 507.026 114.338 505.684 115.437C504.341 116.535 503.426 117.918 502.938 119.586ZM525.797 128.434H534.646C534.93 129.167 535.378 129.838 535.988 130.448C537.29 131.75 539.08 132.401 541.358 132.401C544.816 132.401 546.545 131.384 546.545 129.35C546.545 129.024 546.463 128.74 546.301 128.496C546.138 128.211 545.853 127.967 545.446 127.763C545.04 127.519 544.653 127.316 544.287 127.153C543.921 126.99 543.372 126.828 542.639 126.665C541.948 126.461 541.378 126.319 540.931 126.238C540.524 126.156 539.853 126.014 538.917 125.811C538.022 125.607 537.371 125.465 536.964 125.383C530.537 124 527.323 120.847 527.323 115.925C527.323 113.321 528.482 111.104 530.801 109.274C533.161 107.402 536.375 106.467 540.443 106.467C545.894 106.467 549.982 108.155 552.708 111.531C553.888 112.996 554.681 114.664 555.088 116.535H546.545C546.26 115.925 545.894 115.416 545.446 115.01C544.185 113.993 542.517 113.484 540.443 113.484C538.978 113.484 537.9 113.728 537.208 114.216C536.517 114.664 536.171 115.233 536.171 115.925C536.171 116.169 536.212 116.413 536.293 116.657C536.415 116.861 536.598 117.064 536.842 117.267C537.086 117.43 537.331 117.593 537.575 117.756C537.819 117.878 538.165 118.02 538.612 118.183C539.059 118.305 539.446 118.427 539.771 118.549C540.138 118.671 540.605 118.793 541.175 118.915C541.744 119.037 542.233 119.139 542.639 119.22C543.046 119.302 543.575 119.424 544.226 119.586C544.877 119.708 545.406 119.81 545.813 119.891C552.2 121.315 555.393 124.468 555.393 129.35C555.393 132.075 554.132 134.435 551.61 136.428C549.087 138.422 545.67 139.418 541.358 139.418C535.581 139.418 531.31 137.588 528.543 133.926C527.282 132.259 526.367 130.428 525.797 128.434ZM553.579 114.705V107.382H557.546V100.669H566.089V107.382H574.876V114.705H566.089V131.18H575.242V138.503H557.546V114.705H553.579ZM578.875 134.659C575.62 131.445 573.993 127.539 573.993 122.943C573.993 118.346 575.62 114.46 578.875 111.287C582.129 108.073 586.197 106.467 591.079 106.467C595.92 106.467 599.968 108.073 603.222 111.287C606.518 114.46 608.165 118.346 608.165 122.943C608.165 127.539 606.518 131.445 603.222 134.659C599.968 137.832 595.92 139.418 591.079 139.418C586.197 139.418 582.129 137.832 578.875 134.659ZM585.221 116.352C583.634 118.061 582.841 120.258 582.841 122.943C582.841 125.627 583.634 127.824 585.221 129.533C586.807 131.242 588.76 132.096 591.079 132.096C593.398 132.096 595.351 131.242 596.937 129.533C598.524 127.824 599.317 125.627 599.317 122.943C599.317 120.258 598.524 118.061 596.937 116.352C595.351 114.644 593.398 113.789 591.079 113.789C588.76 113.789 586.807 114.644 585.221 116.352ZM608.797 138.503V107.382H617.34V111.959H617.645C618.011 110.982 618.56 110.128 619.293 109.396C620.961 107.646 623.056 106.772 625.578 106.772H629.239V115.01H624.663C622.344 115.01 620.533 115.64 619.232 116.901C617.97 118.122 617.34 119.83 617.34 122.027V138.503H608.797Z" fill="black"/>
<path d="M277.553 150.932L311.53 92.2438L345.507 150.932H277.553Z" stroke="black" stroke-width="5.25467"/>
<path d="M296.819 150.932L330.797 92.2438L364.774 150.932H296.819Z" stroke="black" stroke-width="5.25467"/>
<path d="M139.061 213.981V188.277H143.283V209.942H156.319V213.981H139.061ZM158.083 211.668C156.419 209.856 155.586 207.506 155.586 204.617C155.586 201.729 156.419 199.391 158.083 197.604C159.772 195.792 161.878 194.886 164.399 194.886C165.99 194.886 167.447 195.352 168.769 196.282C169.332 196.673 169.834 197.126 170.274 197.64H170.458V195.254H174.314V213.981H170.458V211.411H170.274C169.907 211.925 169.405 212.414 168.769 212.879C167.447 213.859 165.99 214.348 164.399 214.348C161.878 214.348 159.772 213.455 158.083 211.668ZM161.094 199.991C160.115 201.068 159.625 202.61 159.625 204.617C159.625 206.625 160.115 208.167 161.094 209.244C162.074 210.321 163.42 210.86 165.134 210.86C166.749 210.86 168.034 210.321 168.989 209.244C169.968 208.142 170.458 206.6 170.458 204.617C170.458 202.634 169.968 201.104 168.989 200.027C168.034 198.926 166.749 198.375 165.134 198.375C163.42 198.375 162.074 198.913 161.094 199.991ZM175.034 195.254H179.073L183.112 210.309H185.132L189.538 195.254H193.578L185.866 220.958H181.827L184.03 213.981H180.175L175.034 195.254ZM195.442 211.557C193.581 209.672 192.651 207.359 192.651 204.617C192.651 201.876 193.581 199.574 195.442 197.714C197.327 195.829 199.64 194.886 202.382 194.886C205.124 194.886 207.425 195.829 209.285 197.714C211.17 199.574 212.113 201.876 212.113 204.617C212.113 207.359 211.17 209.672 209.285 211.557C207.425 213.418 205.124 214.348 202.382 214.348C199.64 214.348 197.327 213.418 195.442 211.557ZM198.269 200.101C197.216 201.227 196.69 202.732 196.69 204.617C196.69 206.502 197.216 208.02 198.269 209.171C199.322 210.297 200.693 210.86 202.382 210.86C204.071 210.86 205.442 210.297 206.494 209.171C207.547 208.02 208.073 206.502 208.073 204.617C208.073 202.732 207.547 201.227 206.494 200.101C205.442 198.95 204.071 198.375 202.382 198.375C200.693 198.375 199.322 198.95 198.269 200.101ZM213.576 206.453V195.254H217.431V206.086C217.431 207.726 217.786 208.938 218.496 209.721C219.231 210.48 220.345 210.86 221.838 210.86C223.331 210.86 224.555 210.358 225.51 209.354C226.489 208.326 226.979 206.992 226.979 205.352V195.254H230.834V213.981H226.979V211.411H226.795C226.501 211.9 226.048 212.39 225.436 212.879C224.115 213.859 222.609 214.348 220.92 214.348C218.594 214.348 216.783 213.675 215.485 212.329C214.212 210.982 213.576 209.024 213.576 206.453ZM231.93 198.742V195.254H234.133V191.214H237.989V195.254H243.681V198.742H237.989V210.493H243.864V213.981H234.133V198.742H231.93ZM253.789 220.958V195.254H257.645V197.64H257.828C258.269 197.126 258.771 196.673 259.334 196.282C260.656 195.352 262.112 194.886 263.703 194.886C266.225 194.886 268.318 195.792 269.983 197.604C271.672 199.391 272.516 201.729 272.516 204.617C272.516 207.506 271.672 209.856 269.983 211.668C268.318 213.455 266.225 214.348 263.703 214.348C262.088 214.348 260.631 213.895 259.334 212.99C258.746 212.573 258.244 212.108 257.828 211.594H257.645V220.958H253.789ZM259.077 200.027C258.122 201.104 257.645 202.634 257.645 204.617C257.645 206.6 258.122 208.142 259.077 209.244C260.056 210.321 261.353 210.86 262.969 210.86C264.683 210.86 266.029 210.321 267.008 209.244C267.988 208.167 268.477 206.625 268.477 204.617C268.477 202.61 267.988 201.068 267.008 199.991C266.029 198.913 264.683 198.375 262.969 198.375C261.353 198.375 260.056 198.926 259.077 200.027ZM273.971 213.981V195.254H277.826V198.008H278.01C278.279 197.494 278.671 197.004 279.185 196.539C280.311 195.56 281.633 195.07 283.151 195.07H285.354V198.742H282.967C281.474 198.742 280.238 199.219 279.259 200.174C278.304 201.104 277.826 202.341 277.826 203.883V213.981H273.971ZM286.737 191.839C286.296 191.398 286.076 190.859 286.076 190.223C286.076 189.586 286.296 189.048 286.737 188.607C287.177 188.142 287.716 187.91 288.352 187.91C288.989 187.91 289.527 188.142 289.968 188.607C290.433 189.048 290.666 189.586 290.666 190.223C290.666 190.859 290.433 191.398 289.968 191.839C289.527 192.279 288.989 192.5 288.352 192.5C287.716 192.5 287.177 192.279 286.737 191.839ZM286.443 213.981V195.254H290.298V213.981H286.443ZM292.855 213.981V195.254H296.71V197.824H296.894C297.212 197.285 297.628 196.796 298.142 196.355C299.317 195.376 300.737 194.886 302.402 194.886C304.385 194.886 305.988 195.474 307.212 196.649C307.726 197.139 308.143 197.714 308.461 198.375H308.644C308.987 197.738 309.464 197.163 310.076 196.649C311.398 195.474 313.063 194.886 315.07 194.886C317.249 194.886 318.951 195.572 320.175 196.943C321.423 198.289 322.047 200.235 322.047 202.781V213.981H318.192V202.965C318.192 199.905 316.845 198.375 314.152 198.375C312.855 198.375 311.729 198.889 310.774 199.917C309.844 200.921 309.379 202.182 309.379 203.699V213.981H305.523V202.965C305.523 199.905 304.177 198.375 301.484 198.375C300.186 198.375 299.06 198.889 298.106 199.917C297.175 200.921 296.71 202.182 296.71 203.699V213.981H292.855ZM324.734 191.839C324.293 191.398 324.073 190.859 324.073 190.223C324.073 189.586 324.293 189.048 324.734 188.607C325.174 188.142 325.713 187.91 326.349 187.91C326.986 187.91 327.524 188.142 327.965 188.607C328.43 189.048 328.663 189.586 328.663 190.223C328.663 190.859 328.43 191.398 327.965 191.839C327.524 192.279 326.986 192.5 326.349 192.5C325.713 192.5 325.174 192.279 324.734 191.839ZM324.44 213.981V195.254H328.296V213.981H324.44ZM329.383 198.742V195.254H331.586V191.214H335.442V195.254H341.133V198.742H335.442V210.493H341.317V213.981H331.586V198.742H329.383ZM343.079 191.839C342.639 191.398 342.419 190.859 342.419 190.223C342.419 189.586 342.639 189.048 343.079 188.607C343.52 188.142 344.059 187.91 344.695 187.91C345.332 187.91 345.87 188.142 346.311 188.607C346.776 189.048 347.009 189.586 347.009 190.223C347.009 190.859 346.776 191.398 346.311 191.839C345.87 192.279 345.332 192.5 344.695 192.5C344.059 192.5 343.52 192.279 343.079 191.839ZM342.786 213.981V195.254H346.641V213.981H342.786ZM347.361 195.254H351.401L355.44 210.493H357.827L361.866 195.254H365.905L360.764 213.981H352.502L347.361 195.254ZM368.306 211.557C366.47 209.672 365.552 207.359 365.552 204.617C365.552 201.876 366.47 199.574 368.306 197.714C370.167 195.829 372.431 194.886 375.1 194.886C377.768 194.886 380.02 195.829 381.856 197.714C383.717 199.574 384.647 201.876 384.647 204.617V205.903H369.408C369.702 207.445 370.375 208.657 371.428 209.538C372.48 210.419 373.704 210.86 375.1 210.86C376.813 210.86 378.184 210.431 379.212 209.575C379.677 209.232 380.081 208.803 380.424 208.289H384.463C383.949 209.489 383.301 210.505 382.517 211.337C380.51 213.345 378.037 214.348 375.1 214.348C372.431 214.348 370.167 213.418 368.306 211.557ZM369.592 202.781H380.608C380.387 201.557 379.8 200.517 378.845 199.66C377.915 198.803 376.666 198.375 375.1 198.375C373.778 198.375 372.603 198.779 371.575 199.587C370.546 200.37 369.885 201.435 369.592 202.781ZM384.833 208.106H389.056C389.228 208.595 389.534 209.06 389.974 209.501C390.88 210.407 392.104 210.86 393.646 210.86C394.993 210.86 395.972 210.652 396.584 210.236C397.196 209.819 397.502 209.293 397.502 208.657C397.502 208.436 397.453 208.24 397.355 208.069C397.257 207.873 397.086 207.702 396.841 207.555C396.596 207.408 396.364 207.286 396.143 207.188C395.923 207.065 395.593 206.955 395.152 206.857C394.711 206.735 394.356 206.649 394.087 206.6C393.818 206.527 393.402 206.429 392.839 206.306C392.3 206.184 391.896 206.098 391.627 206.049C387.71 205.168 385.751 203.283 385.751 200.394C385.751 198.926 386.425 197.64 387.771 196.539C389.118 195.437 390.892 194.886 393.096 194.886C396.156 194.886 398.444 195.866 399.962 197.824C400.648 198.681 401.113 199.66 401.358 200.762H397.318C397.123 200.272 396.853 199.88 396.511 199.587C395.654 198.779 394.515 198.375 393.096 198.375C391.994 198.375 391.162 198.571 390.599 198.962C390.06 199.354 389.791 199.844 389.791 200.431C389.791 200.652 389.84 200.86 389.938 201.055C390.036 201.227 390.207 201.386 390.452 201.533C390.696 201.68 390.929 201.802 391.149 201.9C391.394 201.998 391.725 202.108 392.141 202.23C392.557 202.328 392.912 202.414 393.206 202.488C393.499 202.536 393.903 202.622 394.417 202.745C394.956 202.842 395.372 202.928 395.666 203.002C399.583 203.883 401.541 205.768 401.541 208.657C401.541 210.223 400.831 211.57 399.411 212.696C398.016 213.797 396.094 214.348 393.646 214.348C390.464 214.348 388.028 213.308 386.339 211.227C385.58 210.272 385.078 209.232 384.833 208.106ZM409.988 198.742V195.254H412.192V188.277H421.555V191.765H416.047V195.254H420.454V198.742H416.047V213.981H412.192V198.742H409.988ZM423.252 211.557C421.391 209.672 420.461 207.359 420.461 204.617C420.461 201.876 421.391 199.574 423.252 197.714C425.137 195.829 427.45 194.886 430.192 194.886C432.934 194.886 435.235 195.829 437.095 197.714C438.98 199.574 439.923 201.876 439.923 204.617C439.923 207.359 438.98 209.672 437.095 211.557C435.235 213.418 432.934 214.348 430.192 214.348C427.45 214.348 425.137 213.418 423.252 211.557ZM426.079 200.101C425.026 201.227 424.5 202.732 424.5 204.617C424.5 206.502 425.026 208.02 426.079 209.171C427.132 210.297 428.503 210.86 430.192 210.86C431.881 210.86 433.252 210.297 434.304 209.171C435.357 208.02 435.883 206.502 435.883 204.617C435.883 202.732 435.357 201.227 434.304 200.101C433.252 198.95 431.881 198.375 430.192 198.375C428.503 198.375 427.132 198.95 426.079 200.101ZM441.386 213.981V195.254H445.241V198.008H445.425C445.694 197.494 446.086 197.004 446.6 196.539C447.726 195.56 449.048 195.07 450.566 195.07H452.769V198.742H450.382C448.889 198.742 447.653 199.219 446.673 200.174C445.719 201.104 445.241 202.341 445.241 203.883V213.981H441.386ZM462.681 213.981V188.277H473.88C476.916 188.277 479.327 189.06 481.114 190.627C482.901 192.194 483.795 194.164 483.795 196.539C483.795 198.424 483.207 200.088 482.032 201.533C480.882 202.953 479.266 203.92 477.185 204.434L483.611 213.981H478.654L472.595 204.801H466.904V213.981H462.681ZM466.904 200.762H473.88C477.552 200.762 479.389 199.354 479.389 196.539C479.389 193.724 477.552 192.316 473.88 192.316H466.904V200.762ZM486.766 211.557C484.93 209.672 484.012 207.359 484.012 204.617C484.012 201.876 484.93 199.574 486.766 197.714C488.626 195.829 490.891 194.886 493.559 194.886C496.227 194.886 498.479 195.829 500.315 197.714C502.176 199.574 503.106 201.876 503.106 204.617V205.903H487.867C488.161 207.445 488.834 208.657 489.887 209.538C490.939 210.419 492.163 210.86 493.559 210.86C495.272 210.86 496.643 210.431 497.672 209.575C498.137 209.232 498.541 208.803 498.883 208.289H502.923C502.408 209.489 501.76 210.505 500.976 211.337C498.969 213.345 496.496 214.348 493.559 214.348C490.891 214.348 488.626 213.418 486.766 211.557ZM488.051 202.781H499.067C498.847 201.557 498.259 200.517 497.304 199.66C496.374 198.803 495.126 198.375 493.559 198.375C492.237 198.375 491.062 198.779 490.034 199.587C489.006 200.37 488.345 201.435 488.051 202.781ZM503.66 206.27H508.066C508.238 207.127 508.593 207.898 509.131 208.583C510.306 210.101 512.093 210.86 514.492 210.86C516.426 210.86 517.858 210.517 518.789 209.832C519.719 209.122 520.184 208.179 520.184 207.004C520.184 206.074 519.756 205.327 518.899 204.764C518.066 204.201 516.867 203.712 515.3 203.295C512.24 202.512 510.184 201.863 509.131 201.349C506.218 200.003 504.761 197.971 504.761 195.254C504.761 193.173 505.643 191.373 507.405 189.856C509.168 188.313 511.469 187.542 514.309 187.542C518.079 187.542 520.882 188.803 522.718 191.325C523.501 192.402 524.064 193.65 524.407 195.07H520C519.829 194.385 519.523 193.773 519.082 193.234C518.054 192.01 516.463 191.398 514.309 191.398C512.644 191.398 511.371 191.741 510.49 192.426C509.609 193.112 509.168 193.993 509.168 195.07C509.168 196.686 510.796 197.934 514.052 198.815C514.321 198.889 514.835 199.036 515.594 199.256C516.353 199.452 516.891 199.611 517.21 199.734C517.552 199.831 518.066 200.003 518.752 200.248C519.462 200.468 519.988 200.676 520.331 200.872C520.674 201.068 521.114 201.325 521.653 201.643C522.191 201.937 522.595 202.255 522.865 202.598C523.158 202.916 523.452 203.283 523.746 203.699C524.064 204.115 524.284 204.593 524.407 205.131C524.529 205.645 524.59 206.209 524.59 206.821C524.59 209.024 523.672 210.897 521.836 212.439C520.025 213.957 517.577 214.715 514.492 214.715C510.38 214.715 507.356 213.308 505.422 210.493C504.541 209.293 503.954 207.885 503.66 206.27ZM527.988 211.594C526.201 209.758 525.308 207.433 525.308 204.617C525.308 201.802 526.201 199.476 527.988 197.64C529.775 195.804 532.003 194.886 534.671 194.886C537.658 194.886 540.094 196.025 541.979 198.301C542.787 199.354 543.35 200.48 543.668 201.68H539.629C539.457 201.068 539.139 200.517 538.674 200.027C537.719 198.926 536.385 198.375 534.671 198.375C533.154 198.375 531.881 198.95 530.852 200.101C529.849 201.251 529.347 202.757 529.347 204.617C529.347 206.478 529.849 207.983 530.852 209.134C531.881 210.284 533.154 210.86 534.671 210.86C536.434 210.86 537.817 210.309 538.821 209.207C539.261 208.718 539.592 208.167 539.812 207.555H543.668C543.35 208.803 542.787 209.942 541.979 210.97C540.118 213.222 537.682 214.348 534.671 214.348C532.003 214.348 529.775 213.43 527.988 211.594ZM544.942 213.981V195.254H548.797V198.008H548.981C549.25 197.494 549.642 197.004 550.156 196.539C551.282 195.56 552.604 195.07 554.122 195.07H556.325V198.742H553.938C552.445 198.742 551.209 199.219 550.229 200.174C549.275 201.104 548.797 202.341 548.797 203.883V213.981H544.942ZM557.707 191.839C557.267 191.398 557.046 190.859 557.046 190.223C557.046 189.586 557.267 189.048 557.707 188.607C558.148 188.142 558.687 187.91 559.323 187.91C559.96 187.91 560.498 188.142 560.939 188.607C561.404 189.048 561.636 189.586 561.636 190.223C561.636 190.859 561.404 191.398 560.939 191.839C560.498 192.279 559.96 192.5 559.323 192.5C558.687 192.5 558.148 192.279 557.707 191.839ZM557.414 213.981V195.254H561.269V213.981H557.414ZM563.825 220.958V195.254H567.681V197.64H567.865C568.305 197.126 568.807 196.673 569.37 196.282C570.692 195.352 572.149 194.886 573.74 194.886C576.261 194.886 578.354 195.792 580.019 197.604C581.708 199.391 582.553 201.729 582.553 204.617C582.553 207.506 581.708 209.856 580.019 211.668C578.354 213.455 576.261 214.348 573.74 214.348C572.124 214.348 570.668 213.895 569.37 212.99C568.783 212.573 568.281 212.108 567.865 211.594H567.681V220.958H563.825ZM569.113 200.027C568.158 201.104 567.681 202.634 567.681 204.617C567.681 206.6 568.158 208.142 569.113 209.244C570.092 210.321 571.39 210.86 573.005 210.86C574.719 210.86 576.065 210.321 577.045 209.244C578.024 208.167 578.514 206.625 578.514 204.617C578.514 202.61 578.024 201.068 577.045 199.991C576.065 198.913 574.719 198.375 573.005 198.375C571.39 198.375 570.092 198.926 569.113 200.027ZM582.538 198.742V195.254H584.742V191.214H588.597V195.254H594.289V198.742H588.597V210.493H594.473V213.981H584.742V198.742H582.538ZM605.792 211.668C604.128 209.856 603.295 207.506 603.295 204.617C603.295 201.729 604.128 199.391 605.792 197.604C607.482 195.792 609.587 194.886 612.108 194.886C613.7 194.886 615.156 195.352 616.478 196.282C617.041 196.673 617.543 197.126 617.984 197.64H618.167V195.254H622.023V213.981H618.167V211.411H617.984C617.616 211.925 617.115 212.414 616.478 212.879C615.156 213.859 613.7 214.348 612.108 214.348C609.587 214.348 607.482 213.455 605.792 211.668ZM608.804 199.991C607.824 201.068 607.335 202.61 607.335 204.617C607.335 206.625 607.824 208.167 608.804 209.244C609.783 210.321 611.129 210.86 612.843 210.86C614.458 210.86 615.744 210.321 616.698 209.244C617.678 208.142 618.167 206.6 618.167 204.617C618.167 202.634 617.678 201.104 616.698 200.027C615.744 198.926 614.458 198.375 612.843 198.375C611.129 198.375 609.783 198.913 608.804 199.991ZM624.579 213.981V195.254H628.435V197.824H628.618C628.912 197.334 629.365 196.845 629.977 196.355C631.299 195.376 632.804 194.886 634.493 194.886C636.819 194.886 638.618 195.56 639.891 196.906C641.189 198.252 641.838 200.211 641.838 202.781V213.981H637.982V203.148C637.982 201.508 637.615 200.309 636.88 199.55C636.17 198.767 635.069 198.375 633.575 198.375C632.082 198.375 630.846 198.889 629.867 199.917C628.912 200.921 628.435 202.243 628.435 203.883V213.981H624.579ZM645.618 211.668C643.954 209.856 643.121 207.506 643.121 204.617C643.121 201.729 643.954 199.391 645.618 197.604C647.307 195.792 649.413 194.886 651.934 194.886C653.525 194.886 654.982 195.352 656.304 196.282C656.867 196.673 657.369 197.126 657.81 197.64H657.993V188.277H661.849V213.981H657.993V211.594H657.81C657.393 212.108 656.892 212.573 656.304 212.99C655.007 213.895 653.55 214.348 651.934 214.348C649.413 214.348 647.307 213.455 645.618 211.668ZM648.629 199.991C647.65 201.068 647.161 202.61 647.161 204.617C647.161 206.625 647.65 208.167 648.629 209.244C649.609 210.321 650.955 210.86 652.669 210.86C654.284 210.86 655.57 210.321 656.524 209.244C657.504 208.142 657.993 206.6 657.993 204.617C657.993 202.634 657.504 201.104 656.524 200.027C655.57 198.926 654.284 198.375 652.669 198.375C650.955 198.375 649.609 198.913 648.629 199.991ZM673.228 213.981V188.277H684.428C687.463 188.277 689.874 189.06 691.661 190.627C693.448 192.194 694.342 194.164 694.342 196.539C694.342 198.424 693.754 200.088 692.579 201.533C691.429 202.953 689.813 203.92 687.732 204.434L694.158 213.981H689.201L683.142 204.801H677.451V213.981H673.228ZM677.451 200.762H684.428C688.1 200.762 689.936 199.354 689.936 196.539C689.936 193.724 688.1 192.316 684.428 192.316H677.451V200.762ZM697.313 211.557C695.477 209.672 694.559 207.359 694.559 204.617C694.559 201.876 695.477 199.574 697.313 197.714C699.173 195.829 701.438 194.886 704.106 194.886C706.774 194.886 709.026 195.829 710.863 197.714C712.723 199.574 713.653 201.876 713.653 204.617V205.903H698.414C698.708 207.445 699.381 208.657 700.434 209.538C701.487 210.419 702.711 210.86 704.106 210.86C705.82 210.86 707.19 210.431 708.219 209.575C708.684 209.232 709.088 208.803 709.43 208.289H713.47C712.956 209.489 712.307 210.505 711.523 211.337C709.516 213.345 707.044 214.348 704.106 214.348C701.438 214.348 699.173 213.418 697.313 211.557ZM698.598 202.781H709.614C709.394 201.557 708.806 200.517 707.851 199.66C706.921 198.803 705.673 198.375 704.106 198.375C702.784 198.375 701.609 198.779 700.581 199.587C699.553 200.37 698.892 201.435 698.598 202.781ZM716.52 211.668C714.856 209.856 714.023 207.506 714.023 204.617C714.023 201.729 714.856 199.391 716.52 197.604C718.209 195.792 720.315 194.886 722.836 194.886C724.427 194.886 725.884 195.352 727.206 196.282C727.769 196.673 728.271 197.126 728.711 197.64H728.895V195.254H732.751V213.981H728.895V211.411H728.711C728.344 211.925 727.842 212.414 727.206 212.879C725.884 213.859 724.427 214.348 722.836 214.348C720.315 214.348 718.209 213.455 716.52 211.668ZM719.531 199.991C718.552 201.068 718.062 202.61 718.062 204.617C718.062 206.625 718.552 208.167 719.531 209.244C720.511 210.321 721.857 210.86 723.571 210.86C725.186 210.86 726.471 210.321 727.426 209.244C728.405 208.142 728.895 206.6 728.895 204.617C728.895 202.634 728.405 201.104 727.426 200.027C726.471 198.926 725.186 198.375 723.571 198.375C721.857 198.375 720.511 198.913 719.531 199.991ZM736.886 211.594C735.099 209.758 734.205 207.433 734.205 204.617C734.205 201.802 735.099 199.476 736.886 197.64C738.673 195.804 740.9 194.886 743.569 194.886C746.555 194.886 748.991 196.025 750.876 198.301C751.684 199.354 752.247 200.48 752.565 201.68H748.526C748.355 201.068 748.036 200.517 747.571 200.027C746.617 198.926 745.282 198.375 743.569 198.375C742.051 198.375 740.778 198.95 739.75 200.101C738.746 201.251 738.244 202.757 738.244 204.617C738.244 206.478 738.746 207.983 739.75 209.134C740.778 210.284 742.051 210.86 743.569 210.86C745.331 210.86 746.715 210.309 747.718 209.207C748.159 208.718 748.489 208.167 748.71 207.555H752.565C752.247 208.803 751.684 209.942 750.876 210.97C749.016 213.222 746.58 214.348 743.569 214.348C740.9 214.348 738.673 213.43 736.886 211.594ZM752.37 198.742V195.254H754.573V191.214H758.429V195.254H764.121V198.742H758.429V210.493H764.304V213.981H754.573V198.742H752.37Z" fill="#9C9C9C"/>
<path d="M3.69702 273.145L12.3786 264.316C12.5492 264.142 12.829 264.142 12.9996 264.316L21.3707 272.829C21.5413 273.003 21.8211 273.003 21.9917 272.829L30.3628 264.316C30.5334 264.142 30.8132 264.142 30.9838 264.316L39.3549 272.829C39.5255 273.003 39.8053 273.003 39.9759 272.829L48.347 264.316C48.5176 264.142 48.7974 264.142 48.968 264.316L57.3391 272.829C57.5097 273.003 57.7895 273.003 57.9602 272.829L66.3312 264.316C66.5019 264.142 66.7816 264.142 66.9523 264.316L73.0647 270.532" stroke="black" stroke-opacity="0.15" stroke-width="1.74194"/>
<path d="M-16 291L-7.31842 282.171C-7.14778 281.997 -6.86802 281.997 -6.69738 282.171L1.67368 290.684C1.84432 290.858 2.12408 290.858 2.29472 290.684L10.6658 282.171C10.8364 281.997 11.1162 281.997 11.2868 282.171L19.6579 290.684C19.8285 290.858 20.1083 290.858 20.2789 290.684L28.65 282.171C28.8206 281.997 29.1004 281.997 29.271 282.171L37.6421 290.684C37.8127 290.858 38.0925 290.858 38.2631 290.684L46.6342 282.171C46.8048 281.997 47.0846 281.997 47.2552 282.171L53.3676 288.387" stroke="black" stroke-opacity="0.15" stroke-width="1.74194"/>
<path d="M847.368 58.1452L838.686 49.3158C838.515 49.1423 838.236 49.1423 838.065 49.3158L829.694 57.8294C829.523 58.0029 829.244 58.0029 829.073 57.8294L820.702 49.3158C820.531 49.1423 820.251 49.1423 820.081 49.3158L811.71 57.8294C811.539 58.0029 811.259 58.0029 811.089 57.8294L802.718 49.3158C802.547 49.1423 802.267 49.1423 802.097 49.3158L793.726 57.8294C793.555 58.0029 793.275 58.0029 793.105 57.8294L784.733 49.3158C784.563 49.1423 784.283 49.1423 784.112 49.3158L778 55.5323" stroke="black" stroke-opacity="0.15" stroke-width="1.74194"/>
<path d="M867.065 76L858.383 67.1706C858.212 66.9971 857.933 66.9971 857.762 67.1706L849.391 75.6842C849.22 75.8577 848.941 75.8577 848.77 75.6842L840.399 67.1706C840.228 66.9971 839.949 66.9971 839.778 67.1706L831.407 75.6842C831.236 75.8577 830.956 75.8577 830.786 75.6842L822.415 67.1706C822.244 66.9971 821.964 66.9971 821.794 67.1706L813.423 75.6842C813.252 75.8577 812.972 75.8577 812.802 75.6842L804.431 67.1706C804.26 66.9971 803.98 66.9971 803.809 67.1706L797.697 73.3871" stroke="black" stroke-opacity="0.15" stroke-width="1.74194"/>
<path d="M76.72 61.8718C76.72 64.154 74.9054 65.9744 72.7033 65.9744C70.5011 65.9744 68.6865 64.154 68.6865 61.8718C68.6865 59.5896 70.5011 57.7692 72.7033 57.7692C74.9054 57.7692 76.72 59.5896 76.72 61.8718Z" stroke="black" stroke-opacity="0.15" stroke-width="2.05128"/>
<path d="M544.059 262.128C544.059 264.41 542.245 266.231 540.042 266.231C537.84 266.231 536.026 264.41 536.026 262.128C536.026 259.846 537.84 258.026 540.042 258.026C542.245 258.026 544.059 259.846 544.059 262.128Z" stroke="black" stroke-opacity="0.15" stroke-width="2.05128"/>
<rect x="310.821" y="283.821" width="6.42677" height="6.5641" stroke="black" stroke-opacity="0.15" stroke-width="1.64103"/>
</g>
<defs>
<clipPath id="clip0">
<rect width="901" height="314" fill="white"/>
</clipPath>
</defs>
</svg>
